<?xml version="1.0" encoding="UTF-8"?>
<svg version="1.1" xmlns="http://www.w3.org/2000/svg" width="1024" height="1024">
<path d="M0 0 C337.92 0 675.84 0 1024 0 C1024 337.92 1024 675.84 1024 1024 C686.08 1024 348.16 1024 0 1024 C0 686.08 0 348.16 0 0 Z " fill="#FDFDFD" transform="translate(0,0)"/>
<path d="M0 0 C2.12607682 -0.00379311 4.25215116 -0.00930125 6.3782196 -0.01637268 C12.09709401 -0.03021263 17.8156637 -0.01923989 23.53452086 -0.00266147 C29.54924555 0.01129752 35.56395449 0.0047169 41.57868958 0.00120544 C51.67132416 -0.00148754 61.76383919 0.01190231 71.85644531 0.03515625 C83.4922569 0.06178177 95.12786903 0.06350271 106.76370066 0.05176789 C118.00413236 0.04095692 129.24449255 0.0472018 140.48491859 0.06132317 C145.24808778 0.06705203 150.01120411 0.0670249 154.77437401 0.06225777 C160.38967247 0.0574551 166.00475485 0.06772487 171.62001228 0.08921242 C173.66973009 0.09473509 175.71946885 0.09528766 177.76918793 0.09025955 C192.56411497 0.05854072 206.07951705 1.37293966 220.18286133 6.18920898 C220.92995361 6.4426709 221.6770459 6.69613281 222.44677734 6.95727539 C238.89197732 12.77090032 252.56591924 22.58342493 265.18286133 34.50170898 C266.30821289 35.53038086 266.30821289 35.53038086 267.45629883 36.57983398 C288.00640331 56.04835402 301.34926006 86.03944898 302.31149578 114.27652264 C302.31317163 115.58701989 302.31484747 116.89751715 302.3165741 118.24772644 C302.31883965 118.98451246 302.32110521 119.72129848 302.32343942 120.48041135 C302.32972284 122.92657315 302.32895372 125.37267873 302.328125 127.81884766 C302.33112007 129.58216421 302.3345234 131.34548012 302.33830261 133.10879517 C302.34711246 137.88383893 302.34947949 142.65886475 302.3501184 147.43391585 C302.35083074 150.42243557 302.35296856 153.41095078 302.35561562 156.39946938 C302.36485982 166.8405346 302.36895176 177.28158707 302.36816406 187.72265625 C302.36756387 197.43034405 302.37810667 207.13797618 302.39390773 216.8456499 C302.40701787 225.20008802 302.41234649 233.55450803 302.41170865 241.90895635 C302.41145464 246.88975027 302.41425203 251.8704947 302.4248867 256.85127831 C302.43462605 261.54054805 302.43460717 266.2297216 302.42737007 270.9189949 C302.42633137 272.63091613 302.42864415 274.34284353 302.43473053 276.05475426 C302.53574068 306.45788027 294.08463023 335.05742522 274.18286133 358.50170898 C273.39395508 359.4362793 272.60504883 360.37084961 271.79223633 361.33374023 C250.71679308 385.63489606 220.13286479 400.6715822 188.18286133 403.50170898 C182.63164667 403.72846057 177.09746443 403.69362137 171.54321289 403.63012695 C169.9363875 403.61974794 168.32955476 403.61045777 166.72271729 403.60215759 C163.2934696 403.58332754 159.86431476 403.55923474 156.43512726 403.53158188 C150.99311435 403.49009984 145.55122231 403.47523208 140.10906982 403.46633911 C139.18506827 403.46472365 138.26106671 403.46310819 137.3090651 403.46144378 C135.42128765 403.45820729 133.53351008 403.45503753 131.6457324 403.45193315 C119.00179668 403.43022884 106.35857014 403.39213098 93.71508789 403.27905273 C85.14982639 403.20264911 76.58556152 403.16956925 68.01995826 403.18495476 C63.50427273 403.19138081 58.99100559 403.17684133 54.47577667 403.1088829 C27.77296311 402.46932057 27.77296311 402.46932057 4.85420418 415.08398819 C2.41086092 417.15656028 -0.21350593 418.73584997 -2.95776367 420.38452148 C-10.91998661 425.43241768 -18.86999929 430.4885672 -26.69213867 435.75170898 C-31.83065099 439.20619486 -37.01442066 442.57826052 -42.25463867 445.87670898 C-42.89320801 446.28179688 -43.53177734 446.68688477 -44.18969727 447.10424805 C-58.67849411 456.15927407 -58.67849411 456.15927407 -66.81713867 454.50170898 C-69.4874902 452.1651514 -70.15497235 449.90629907 -70.81713867 446.50170898 C-70.86342006 444.45070974 -70.85027381 442.3980804 -70.80029297 440.34716797 C-70.77505051 439.10164658 -70.74980804 437.85612518 -70.72380066 436.57286072 C-70.70219407 435.57771611 -70.70219407 435.57771611 -70.68015099 434.56246758 C-70.59966049 430.27861541 -70.58784674 425.99390476 -70.56505108 421.70942593 C-70.54123868 417.95650496 -70.49249963 414.20718888 -70.38867188 410.45556641 C-69.02693469 393.31416358 -69.02693469 393.31416358 -74.80297852 378.22607422 C-77.62426757 375.75250613 -80.63736929 374.06222018 -84.02154541 372.47802734 C-103.34165138 361.97310144 -116.04432577 333.59243316 -122.01733398 313.87817383 C-125.68471295 300.75852904 -126.1136802 287.70593265 -126.09179688 274.19970703 C-126.09615452 272.40258576 -126.10134114 270.60546634 -126.10728455 268.80834961 C-126.12057297 263.96726124 -126.12126461 259.12625141 -126.11872125 254.28514838 C-126.11764455 250.22501568 -126.12255267 246.16489842 -126.12732667 242.10476905 C-126.13838685 232.51612313 -126.13887905 222.92751639 -126.1328125 213.33886719 C-126.126776 203.48909194 -126.1390836 193.63945966 -126.16038257 183.78970879 C-126.17806917 175.29410516 -126.18398883 166.79854674 -126.18074483 158.30292541 C-126.17894297 153.24606131 -126.18145733 148.18929921 -126.19545937 143.13245201 C-126.20814859 138.37245984 -126.20599017 133.61268854 -126.19304848 128.85269928 C-126.19070704 127.11987797 -126.19332839 125.38704056 -126.2016716 123.65423775 C-126.35106759 90.17555511 -115.0431761 60.7777481 -91.81713867 36.50170898 C-90.91801758 35.5078418 -90.91801758 35.5078418 -90.00073242 34.49389648 C-79.59071144 23.38687626 -66.62192271 15.62351635 -52.81713867 9.50170898 C-51.73948242 9.01959961 -50.66182617 8.53749023 -49.55151367 8.04077148 C-33.27861308 1.29446848 -17.39904605 -0.08965996 0 0 Z " fill="#131313" transform="translate(423.817138671875,246.498291015625)"/>
<path d="M0 0 C1.14452637 0.00821777 2.28905273 0.01643555 3.46826172 0.02490234 C28.42416403 0.35378132 47.02365526 6.83929203 65.25 24.25 C65.86488281 24.79011719 66.47976563 25.33023437 67.11328125 25.88671875 C89.73182013 46.52938527 97.38899984 83.11257472 99.25 112.25 C99.40176158 116.93897982 99.43697679 121.62518022 99.453125 126.31640625 C99.45882507 127.63051987 99.46452515 128.94463348 99.47039795 130.29856873 C99.48081523 133.065993 99.48671757 135.83338905 99.49023438 138.60083008 C99.49460811 141.39621104 99.50847544 144.19128145 99.53125 146.98657227 C99.65603735 162.63154956 99.58692057 177.89601647 96.25 193.25 C96.02554199 194.29148193 95.80108398 195.33296387 95.56982422 196.40600586 C94.97118806 198.94419595 94.30073644 201.43674668 93.5625 203.9375 C93.30976318 204.80487793 93.05702637 205.67225586 92.79663086 206.56591797 C90.22538917 214.97597269 86.61788825 222.63664897 82.25 230.25 C81.6725 231.26578125 81.095 232.2815625 80.5 233.328125 C67.28341498 255.23339091 48.3064598 266.47467179 24.2734375 273.06640625 C1.0257727 277.96967479 -26.74778185 274.70697617 -46.9765625 262.125 C-72.62867638 244.78272583 -84.89915521 218.46622884 -91.4375 189.125 C-94.63850669 171.54698426 -95.10180051 153.64780839 -95.06567383 135.82397461 C-95.06249128 132.55354073 -95.08618868 129.28399665 -95.11132812 126.01367188 C-95.15055507 112.82040375 -94.18312469 100.21601714 -91.75 87.25 C-91.60504089 86.45741791 -91.46008179 85.66483582 -91.31072998 84.84823608 C-86.16282485 56.91181777 -73.2500149 31.69789429 -50 14.6875 C-34.51979389 4.10579229 -18.60405486 -0.16239669 0 0 Z " fill="#FCFCFC" transform="translate(509.75,311.75)"/>
<path d="M0 0 C16.2447034 11.91096541 22.40622064 29.5616111 25.56643677 48.85449219 C27.27793004 60.74379884 27.0284855 72.77812845 26.96923828 84.76318359 C26.95214692 88.25582369 26.96230672 91.74777792 26.97956085 95.24039459 C27.09023057 121.63642997 26.69295058 150.30198858 7.765625 170.83203125 C-1.85505553 179.91306046 -13.64660896 182.12618585 -26.44140625 181.76953125 C-37.74180929 180.88235535 -45.73967295 175.41259924 -53.484375 167.51953125 C-67.8547032 150.5800481 -69.55536002 126.84506226 -69.66015625 105.625 C-69.66423178 104.91903498 -69.6683073 104.21306995 -69.67250633 103.48571205 C-69.69326238 99.74088474 -69.70760277 95.99609281 -69.71704102 92.2512207 C-69.72584864 89.19958206 -69.74661218 86.14840653 -69.77856445 83.09692383 C-70.04664011 56.92082157 -70.23816599 26.74513914 -51.32421875 6.17578125 C-37.44552381 -6.94411379 -16.5356538 -10.53481169 0 0 Z " fill="#131313" transform="translate(533.421875,360.54296875)"/>
<path d="M0 0 C2 2 2 2 2.265625 3.85546875 C2.12478921 24.87521079 2.12478921 24.87521079 -2 29 C-2.66 29.99 -3.32 30.98 -4 32 C-3.125 24.125 -3.125 24.125 -2 23 C-1.0835126 16.7882521 -0.93429941 10.77772266 -1.0625 4.50390625 C-1 2 -1 2 0 0 Z " fill="#1A191A" transform="translate(558,469)"/>
<path d="M0 0 C2.24294705 3.74474638 2.89228871 7.76057461 3.625 12 C3.75688721 12.74950928 3.88877441 13.49901855 4.0246582 14.27124023 C5.05965302 20.53941506 5.33038424 26.64928063 5 33 C2.38772136 30.38772136 2.6249601 28.98157857 2.3671875 25.3359375 C2.28339844 24.21445312 2.19960938 23.09296875 2.11328125 21.9375 C2.03464844 20.761875 1.95601562 19.58625 1.875 18.375 C1.78863281 17.19164062 1.70226562 16.00828125 1.61328125 14.7890625 C1.40067787 11.85986034 1.19661853 8.93031149 1 6 C0.34 6 -0.32 6 -1 6 C-0.67 4.02 -0.34 2.04 0 0 Z " fill="#191919" transform="translate(721,336)"/>
<path d="M0 0 C0.33 0.66 0.66 1.32 1 2 C-2.87792288 6.92908146 -6.76116833 10.5423711 -12 14 C-10.41332422 10.09714233 -7.86649519 7.66479018 -4.875 4.75 C-3.96492187 3.85796875 -3.05484375 2.9659375 -2.1171875 2.046875 C-1.41851563 1.37140625 -0.71984375 0.6959375 0 0 Z " fill="#080808" transform="translate(583,555)"/>
<path d="M0 0 C0.33 0 0.66 0 1 0 C1.33 5.94 1.66 11.88 2 18 C1.34 18.33 0.68 18.66 0 19 C-1.31909709 12.5510809 -0.69508823 6.51244208 0 0 Z " fill="#252525" transform="translate(415,470)"/>
<path d="M0 0 C0 0.99 0 1.98 0 3 C-2.3125 3.625 -2.3125 3.625 -5 4 C-5.99 3.34 -6.98 2.68 -8 2 C-8 2.66 -8 3.32 -8 4 C-9.32 3.67 -10.64 3.34 -12 3 C-11.67 2.34 -11.34 1.68 -11 1 C-7.29882394 0.15882362 -3.78728969 -0.11139087 0 0 Z " fill="#1B1C1C" transform="translate(407,247)"/>
<path d="M0 0 C2.83022097 3.99560608 1.76210446 7.42737323 1 12 C0.67 12 0.34 12 0 12 C-1.28571429 3.42857143 -1.28571429 3.42857143 0 0 Z " fill="#1D1D1D" transform="translate(605,389)"/>
<path d="M0 0 C2.78388975 1.70625501 3.85384206 2.47626739 4.75 5.6875 C4.8325 6.450625 4.915 7.21375 5 8 C4.01 8.495 4.01 8.495 3 9 C0 3.375 0 3.375 0 0 Z " fill="#1E1E1E" transform="translate(592,358)"/>
<path d="M0 0 C0.99 0.33 1.98 0.66 3 1 C3.625 3.3125 3.625 3.3125 4 6 C3.01 7.485 3.01 7.485 2 9 C0.50178941 5.62902617 0 3.79557881 0 0 Z " fill="#191919" transform="translate(419,511)"/>
</svg>
