<?xml version="1.0" encoding="UTF-8"?>
<svg version="1.1" xmlns="http://www.w3.org/2000/svg" width="1024" height="1024">
<path d="M0 0 C337.92 0 675.84 0 1024 0 C1024 337.92 1024 675.84 1024 1024 C686.08 1024 348.16 1024 0 1024 C0 686.08 0 348.16 0 0 Z " fill="#171717" transform="translate(0,0)"/>
<path d="M0 0 C1.22072521 -0.00445668 1.22072521 -0.00445668 2.46611154 -0.0090034 C5.16706482 -0.01760861 7.86797336 -0.01919165 10.56893921 -0.02069092 C12.51634819 -0.02532489 14.46375628 -0.03035033 16.41116333 -0.03573608 C21.68419631 -0.0488062 26.9572166 -0.05529447 32.23026323 -0.05974674 C35.53087437 -0.06268617 38.83148211 -0.06679259 42.13209152 -0.07125092 C52.47710103 -0.0849116 62.82210268 -0.09458526 73.16712058 -0.09845281 C85.07527703 -0.10293029 96.98331852 -0.12046989 108.89144003 -0.1494534 C118.11895816 -0.17112657 127.34644407 -0.18116009 136.57398736 -0.18249393 C142.07464491 -0.18353791 147.57519418 -0.18935872 153.07582474 -0.20731354 C158.25514338 -0.22389198 163.43427346 -0.22590265 168.61360931 -0.21717453 C170.50368889 -0.21640936 172.39377903 -0.2206773 174.28383255 -0.23063278 C203.55455976 -0.37564428 228.1465485 8.6239713 251.4258728 26.14044189 C252.4158728 26.80044189 253.4058728 27.46044189 254.4258728 28.14044189 C254.4258728 28.80044189 254.4258728 29.46044189 254.4258728 30.14044189 C255.02270874 30.41501221 255.61954468 30.68958252 256.23446655 30.97247314 C273.8398769 40.35574889 285.50647503 68.15607529 291.2461853 86.07794189 C295.82356171 101.33101176 296.57678046 116.71423484 296.57113647 132.54937744 C296.57413797 133.94079171 296.57754272 135.33220516 296.58131409 136.72361755 C296.590058 140.46361101 296.59248811 144.20358151 296.59312987 147.9435842 C296.59384591 150.2914457 296.59599058 152.63930155 296.59862709 154.98716164 C296.60784898 163.21005237 296.61196598 171.43292702 296.61117554 179.65582275 C296.61057572 187.26916855 296.62111694 194.88244327 296.6369192 202.49577111 C296.65007969 209.07545666 296.65535589 215.65511922 296.65472013 222.2348178 C296.65446761 226.14538287 296.65718014 230.05588466 296.66789818 233.96643639 C296.76787439 273.15199942 296.76787439 273.15199942 292.1758728 290.26544189 C291.95971313 291.09253662 291.74355347 291.91963135 291.52084351 292.77178955 C285.40817397 315.44859495 274.63152763 334.0078364 258.4258728 351.14044189 C257.89477905 351.70634033 257.3636853 352.27223877 256.8164978 352.85528564 C254.90525207 354.62157734 252.85548568 355.25155914 250.4258728 356.14044189 C249.08537228 356.79257728 247.74925912 357.45424158 246.4258728 358.14044189 C246.4258728 358.80044189 246.4258728 359.46044189 246.4258728 360.14044189 C245.7658728 360.14044189 245.1058728 360.14044189 244.4258728 360.14044189 C244.4258728 360.80044189 244.4258728 361.46044189 244.4258728 362.14044189 C243.4358728 362.14044189 242.4458728 362.14044189 241.4258728 362.14044189 C241.0958728 362.80044189 240.7658728 363.46044189 240.4258728 364.14044189 C239.7658728 364.14044189 239.1058728 364.14044189 238.4258728 364.14044189 C238.4258728 364.80044189 238.4258728 365.46044189 238.4258728 366.14044189 C237.6214978 366.26419189 236.8171228 366.38794189 235.9883728 366.51544189 C235.1427478 366.72169189 234.2971228 366.92794189 233.4258728 367.14044189 C233.0958728 367.80044189 232.7658728 368.46044189 232.4258728 369.14044189 C230.05037339 370.25395724 227.62966096 371.07632487 225.1289978 371.86309814 C224.31946655 372.11962158 223.5099353 372.37614502 222.6758728 372.64044189 C221.89727905 372.87762939 221.1186853 373.11481689 220.3164978 373.35919189 C218.23391887 373.97781611 218.23391887 373.97781611 217.4258728 376.14044189 C214.8789978 376.70294189 214.8789978 376.70294189 211.6758728 377.14044189 C208.51858496 377.57592987 205.79222631 377.99124816 202.83602905 379.19512939 C200.23199907 380.21648313 198.39166394 380.34837596 195.6133728 380.26544189 C194.82317749 380.24739502 194.03298218 380.22934814 193.21884155 380.21075439 C192.33132202 380.17594971 192.33132202 380.17594971 191.4258728 380.14044189 C191.0958728 380.80044189 190.7658728 381.46044189 190.4258728 382.14044189 C188.4458728 382.14044189 186.4658728 382.14044189 184.4258728 382.14044189 C184.0958728 381.48044189 183.7658728 380.82044189 183.4258728 380.14044189 C183.7558728 379.48044189 184.0858728 378.82044189 184.4258728 378.14044189 C182.44095638 378.40720393 182.44095638 378.40720393 180.4258728 379.14044189 C180.0958728 380.13044189 179.7658728 381.12044189 179.4258728 382.14044189 C174.71319165 382.9887245 171.10207829 383.07568299 166.4258728 382.14044189 C164.88670148 381.91440974 163.34469395 381.70715825 161.8008728 381.51544189 C161.06610718 381.42005127 160.33134155 381.32466064 159.5743103 381.22637939 C157.45461043 381.0399185 157.45461043 381.0399185 155.57040405 381.60919189 C152.59755066 382.34563645 149.79938657 382.2720603 146.7383728 382.26544189 C146.0906189 382.2642334 145.44286499 382.2630249 144.77548218 382.26177979 C138.94387671 382.21661125 133.13768925 381.8773724 127.32553101 381.4085083 C122.86133793 381.08444653 118.83647304 381.45265027 114.4258728 382.14044189 C113.6008728 381.95481689 112.7758728 381.76919189 111.9258728 381.57794189 C109.28102999 380.91784344 109.28102999 380.91784344 106.2383728 382.14044189 C101.44864869 383.39676297 97.25429158 383.18716205 92.4258728 382.14044189 C91.4358728 381.48044189 90.4458728 380.82044189 89.4258728 380.14044189 C89.0958728 381.13044189 88.7658728 382.12044189 88.4258728 383.14044189 C85.47602951 382.60410675 82.73016827 381.92074573 79.8633728 381.01544189 C76.69824562 380.20977316 75.37799227 379.95959411 72.4258728 381.14044189 C72.4258728 381.80044189 72.4258728 382.46044189 72.4258728 383.14044189 C71.5802478 382.99606689 70.7346228 382.85169189 69.8633728 382.70294189 C68.7289978 382.51731689 67.5946228 382.33169189 66.4258728 382.14044189 C64.5386853 381.83106689 64.5386853 381.83106689 62.6133728 381.51544189 C61.5614978 381.39169189 60.5096228 381.26794189 59.4258728 381.14044189 C59.0958728 381.47044189 58.7658728 381.80044189 58.4258728 382.14044189 C56.36172067 382.20380006 54.29543912 382.1996255 52.2305603 382.16778564 C50.95696655 382.15553955 49.6833728 382.14329346 48.3711853 382.13067627 C46.34374618 382.10600502 44.31646382 382.07820111 42.28915405 382.04449463 C40.3322437 382.01397798 38.37513703 381.99702121 36.4180603 381.98028564 C35.24614136 381.96344727 34.07422241 381.94660889 32.86679077 381.92926025 C29.1403573 382.15796502 25.98754966 383.05623414 22.4258728 384.14044189 C18.9883728 384.26544189 18.9883728 384.26544189 16.4258728 384.14044189 C16.0958728 385.13044189 15.7658728 386.12044189 15.4258728 387.14044189 C12.27833688 390.28797782 10.86063845 391.44021574 6.4258728 392.14044189 C6.0958728 393.13044189 5.7658728 394.12044189 5.4258728 395.14044189 C4.4358728 395.47044189 3.4458728 395.80044189 2.4258728 396.14044189 C2.0958728 397.13044189 1.7658728 398.12044189 1.4258728 399.14044189 C-0.2241272 399.14044189 -1.8741272 399.14044189 -3.5741272 399.14044189 C-3.5741272 399.80044189 -3.5741272 400.46044189 -3.5741272 401.14044189 C-5.55359312 402.50407397 -7.5560517 403.83462834 -9.5741272 405.14044189 C-10.0485022 405.63544189 -10.5228772 406.13044189 -11.0116272 406.64044189 C-13.0250059 408.57328545 -15.36443607 409.69528333 -17.79678345 411.02716064 C-20.4412731 412.68359922 -22.44015808 414.88453169 -24.5741272 417.14044189 C-25.2341272 417.47044189 -25.8941272 417.80044189 -26.5741272 418.14044189 C-26.9041272 417.81044189 -27.2341272 417.48044189 -27.5741272 417.14044189 C-27.9660022 417.90356689 -28.3578772 418.66669189 -28.7616272 419.45294189 C-30.84311465 422.53928535 -32.29020708 423.42709227 -35.5741272 425.14044189 C-37.05421575 425.97213676 -38.53329933 426.80562145 -40.0116272 427.64044189 C-40.79151001 428.06712158 -41.57139282 428.49380127 -42.37490845 428.93341064 C-44.16351009 429.91507656 -45.93421684 430.92929389 -47.6991272 431.95294189 C-52.2134918 433.81757075 -55.91693948 433.70459091 -60.5116272 432.14044189 C-61.1922522 431.81044189 -61.8728772 431.48044189 -62.5741272 431.14044189 C-62.6991272 424.39044189 -62.6991272 424.39044189 -61.5741272 422.14044189 C-62.5641272 421.81044189 -63.5541272 421.48044189 -64.5741272 421.14044189 C-65.1991272 417.76544189 -65.1991272 417.76544189 -65.5741272 414.14044189 C-64.9141272 413.48044189 -64.2541272 412.82044189 -63.5741272 412.14044189 C-63.5741272 410.19500346 -63.58043042 408.24901418 -63.64053345 406.30450439 C-63.5420915 403.09645492 -62.47527969 400.20436036 -61.5741272 397.14044189 C-62.0691272 395.65544189 -62.0691272 395.65544189 -62.5741272 394.14044189 C-61.9141272 394.14044189 -61.2541272 394.14044189 -60.5741272 394.14044189 C-60.5741272 393.48044189 -60.5741272 392.82044189 -60.5741272 392.14044189 C-61.2341272 392.14044189 -61.8941272 392.14044189 -62.5741272 392.14044189 C-62.62311157 391.47657471 -62.67209595 390.81270752 -62.7225647 390.12872314 C-63.1329802 384.66070074 -63.1329802 384.66070074 -64.6991272 379.45294189 C-65.96451327 376.10870729 -65.2236022 373.62398962 -64.5741272 370.14044189 C-64.37707068 368.66251801 -64.18947936 367.18329958 -64.0116272 365.70294189 C-63.8672522 364.52731689 -63.7228772 363.35169189 -63.5741272 362.14044189 C-64.3166272 361.85169189 -65.0591272 361.56294189 -65.8241272 361.26544189 C-70.02058214 359.54871033 -72.87331084 358.15757654 -75.8241272 354.64044189 C-76.34490845 354.03200439 -76.8656897 353.42356689 -77.4022522 352.79669189 C-78.5741272 351.14044189 -78.5741272 351.14044189 -78.5741272 349.14044189 C-79.5641272 349.14044189 -80.5541272 349.14044189 -81.5741272 349.14044189 C-81.5741272 348.15044189 -81.5741272 347.16044189 -81.5741272 346.14044189 C-82.5641272 345.81044189 -83.5541272 345.48044189 -84.5741272 345.14044189 C-84.9041272 342.83044189 -85.2341272 340.52044189 -85.5741272 338.14044189 C-86.8941272 337.81044189 -88.2141272 337.48044189 -89.5741272 337.14044189 C-90.0691272 335.16044189 -90.0691272 335.16044189 -90.5741272 333.14044189 C-91.2341272 333.14044189 -91.8941272 333.14044189 -92.5741272 333.14044189 C-94.90746053 328.47377523 -97.24079386 323.80710856 -99.5741272 319.14044189 C-100.2341272 318.81044189 -100.8941272 318.48044189 -101.5741272 318.14044189 C-101.9696439 316.82421417 -102.28289247 315.48359908 -102.5741272 314.14044189 C-103.34340961 311.58908081 -104.1329134 309.05153476 -104.9491272 306.51544189 C-105.15795532 305.83481689 -105.36678345 305.15419189 -105.5819397 304.45294189 C-106.78102467 300.75332607 -107.24069431 299.36273049 -110.5741272 297.14044189 C-110.6991272 294.57794189 -110.6991272 294.57794189 -110.5741272 292.14044189 C-110.9041272 291.81044189 -111.2341272 291.48044189 -111.5741272 291.14044189 C-111.86061599 288.43016699 -112.02248141 285.71954581 -112.19522095 282.99981689 C-112.44579374 280.13504839 -112.44579374 280.13504839 -113.63272095 277.64434814 C-114.77745781 274.5996331 -114.58597365 272.53876746 -114.1991272 269.32794189 C-114.03283813 267.86421143 -114.03283813 267.86421143 -113.8631897 266.37091064 C-113.76779907 265.63485596 -113.67240845 264.89880127 -113.5741272 264.14044189 C-112.9141272 264.14044189 -112.2541272 264.14044189 -111.5741272 264.14044189 C-111.5741272 263.48044189 -111.5741272 262.82044189 -111.5741272 262.14044189 C-112.2341272 262.14044189 -112.8941272 262.14044189 -113.5741272 262.14044189 C-115.57253103 258.018734 -115.91188459 254.70016669 -115.5741272 250.14044189 C-114.9141272 249.15044189 -114.2541272 248.16044189 -113.5741272 247.14044189 C-113.9223318 245.18929201 -113.9223318 245.18929201 -114.5741272 243.14044189 C-114.6399656 241.62089151 -114.65978658 240.09874158 -114.6366272 238.57794189 C-114.62760376 237.81352783 -114.61858032 237.04911377 -114.60928345 236.26153564 C-114.59768188 235.56157471 -114.58608032 234.86161377 -114.5741272 234.14044189 C-114.5741272 233.15044189 -114.5741272 232.16044189 -114.5741272 231.14044189 C-114.5741272 227.80710856 -114.5741272 224.47377523 -114.5741272 221.14044189 C-114.9041272 220.15044189 -115.2341272 219.16044189 -115.5741272 218.14044189 C-115.77952748 214.51170354 -115.77362458 211.71399686 -114.5741272 208.26544189 C-113.26144411 204.16330726 -113.40337557 200.40923268 -113.5741272 196.14044189 C-114.2341272 195.81044189 -114.8941272 195.48044189 -115.5741272 195.14044189 C-115.8241272 187.51544189 -115.8241272 187.51544189 -113.5741272 184.14044189 C-114.2341272 184.14044189 -114.8941272 184.14044189 -115.5741272 184.14044189 C-115.2235022 183.19169189 -114.8728772 182.24294189 -114.5116272 181.26544189 C-113.22385943 178.26984018 -113.22385943 178.26984018 -114.5741272 176.14044189 C-114.27385603 174.46750253 -113.93854952 172.80058805 -113.5741272 171.14044189 C-113.5741272 170.15044189 -113.5741272 169.16044189 -113.5741272 168.14044189 C-113.5741272 166.82044189 -113.5741272 165.50044189 -113.5741272 164.14044189 C-114.2341272 164.14044189 -114.8941272 164.14044189 -115.5741272 164.14044189 C-116.67057124 158.19586576 -116.98442568 154.46050753 -113.5741272 149.14044189 C-114.2341272 149.14044189 -114.8941272 149.14044189 -115.5741272 149.14044189 C-116.2616272 146.82794189 -116.2616272 146.82794189 -116.5741272 144.14044189 C-115.59562525 143.11939638 -114.59432293 142.1198298 -113.5741272 141.14044189 C-113.32342807 138.51473486 -113.32342807 138.51473486 -113.5741272 136.14044189 C-114.2341272 136.14044189 -114.8941272 136.14044189 -115.5741272 136.14044189 C-117.73939839 129.64462832 -116.80028555 120.78139834 -113.9491272 114.64044189 C-113.4953772 113.81544189 -113.0416272 112.99044189 -112.5741272 112.14044189 C-112.84259109 109.72426689 -113.49192464 108.304847 -114.5741272 106.14044189 C-114.51662069 98.5352064 -113.00604784 90.87517717 -108.8241272 84.45294189 C-107.25453975 82.164685 -107.25453975 82.164685 -108.2147522 79.47637939 C-108.6911016 75.05461431 -107.12061396 72.23096642 -105.0741272 68.45294189 C-104.52317383 67.39901245 -104.52317383 67.39901245 -103.96109009 66.3237915 C-100.813365 60.38848829 -97.40993628 54.65940046 -93.5741272 49.14044189 C-93.06752563 48.40954346 -92.56092407 47.67864502 -92.03897095 46.92559814 C-74.24892102 22.75385954 -47.0983114 6.27927035 -17.5741272 1.14044189 C-11.69876718 0.35208531 -5.92447316 -0.0069208 0 0 Z M-64.5741272 392.14044189 C-63.5841272 392.63544189 -63.5841272 392.63544189 -62.5741272 393.14044189 C-63.5641272 393.63544189 -63.5641272 393.63544189 -64.5741272 394.14044189 C-64.5741272 393.48044189 -64.5741272 392.82044189 -64.5741272 392.14044189 Z " fill="#2A2A2A" transform="translate(422.5741271972656,257.85955810546875)"/>
<path d="M0 0 C4.35954776 0.20310705 8.59991091 0.30436719 12.875 -0.625 C15 -1 15 -1 16.76171875 -0.0546875 C19.55720066 1.26255528 21.85918025 1.34472536 24.9375 1.5 C29.06998625 1.70897528 32.2250316 2.2758892 36 4 C36 3.34 36 2.68 36 2 C36.66 2 37.32 2 38 2 C38 2.66 38 3.32 38 4 C39.175625 4.4640625 39.175625 4.4640625 40.375 4.9375 C43 6 43 6 45 7 C45 6.34 45 5.68 45 5 C45.66 5 46.32 5 47 5 C47.33 6.65 47.66 8.3 48 10 C49.98 10.66 51.96 11.32 54 12 C54 12.66 54 13.32 54 14 C54.94875 14.268125 55.8975 14.53625 56.875 14.8125 C60 16 60 16 62 19 C62.680625 19.33 63.36125 19.66 64.0625 20 C66 21 66 21 67 24 C67.99 24 68.98 24 70 24 C70.226875 24.7425 70.45375 25.485 70.6875 26.25 C71.81075161 29.14127143 71.81075161 29.14127143 74.375 30.8125 C77.78340193 33.65283494 79.4780093 36.85916497 81 41 C81 41.99 81 42.98 81 44 C81.99 44 82.98 44 84 44 C85.93189409 46.62737597 87.00540221 49.01688192 88 52.125 C89.01069286 55.03074196 89.85361341 55.94693456 92 58 C92.93483768 60.46457207 92.9904345 62.22000651 92.875 64.875 C93.02356906 68.58922653 94.29721511 70.73632895 96 74 C96 75.32 96 76.64 96 78 C96.66 78 97.32 78 98 78 C98.12375 79.216875 98.2475 80.43375 98.375 81.6875 C98.69236704 84.3384482 99.08210058 86.19612916 100.125 88.6875 C101.22515722 91.59505835 100.61907072 92.97343201 100 96 C100.23666913 98.01494452 100.47459754 100.02974625 100.7175293 102.04394531 C101.27201529 107.8466388 101.38642017 113.67888664 101.55761719 119.50341797 C101.62527194 121.75906661 101.70299182 124.01422847 101.78125 126.26953125 C101.82612973 127.71612707 101.87042138 129.16274128 101.9140625 130.609375 C101.9548291 131.90842773 101.9955957 133.20748047 102.03759766 134.54589844 C102.00496932 137.54346755 101.71855396 140.10217948 101 143 C101.66 143 102.32 143 103 143 C102.125 147.75 102.125 147.75 101 150 C101.66 150.33 102.32 150.66 103 151 C102.835 152.093125 102.67 153.18625 102.5 154.3125 C101.98229607 158.13056652 101.78369726 160.35109177 103 164 C102.51549834 167.68221264 101.71385422 172.28614578 99 175 C98.75167529 177.87412854 98.61604072 180.74757983 98.4765625 183.62890625 C97.99679063 187.02270233 97.10492149 189.72620366 95.84277344 192.88647461 C94.9872932 195.03186639 94.21534649 197.19352215 93.45703125 199.375 C83.63164143 227.19715407 70.5965462 247.96383051 43.65625 262.2421875 C21.26500193 272.41286004 -8.09719932 271.9302162 -30.9375 263.6875 C-41.24468095 259.37256835 -49.61560312 253.33634727 -58 246 C-58.7115625 245.38511719 -59.423125 244.77023437 -60.15625 244.13671875 C-83.0340056 222.93848092 -89.73743999 188.3153596 -91.11752319 158.45739746 C-91.29797848 152.24265027 -91.28649774 146.02918941 -91.25 139.8125 C-91.24689819 138.87011475 -91.24379639 137.92772949 -91.24060059 136.95678711 C-91.11639665 104.7483864 -89.79098744 58.11350142 -65.34375 33.3203125 C-64.9003125 32.88460937 -64.456875 32.44890625 -64 32 C-63.54625 30.989375 -63.0925 29.97875 -62.625 28.9375 C-60.70364921 25.46428895 -59.57837151 25.3183474 -56 24 C-55.86207031 23.39542969 -55.72414063 22.79085938 -55.58203125 22.16796875 C-54.45433748 17.96749867 -50.36011912 15.52622094 -47 13 C-45.02204336 11.95707741 -43.02880819 10.94017941 -41 10 C-40.67 9.34 -40.34 8.68 -40 8 C-38.02 8 -36.04 8 -34 8 C-33.67 7.34 -33.34 6.68 -33 6 C-29.85968767 3.90645845 -27.84765413 3.65967844 -24.171875 3.27734375 C-20.70205669 2.83425544 -17.37776182 1.88888469 -14 1 C-8.91006056 -0.33226603 -5.18474013 -1.26457076 0 0 Z " fill="#121212" transform="translate(509,315)"/>
<path d="M0 0 C8.47114528 6.31721926 14.32224397 13.74253901 18.4140625 23.45703125 C18.76210938 24.28074219 19.11015625 25.10445313 19.46875 25.953125 C26.08950636 43.63413713 27.62795712 63.79091684 27.5390625 82.51953125 C27.53422852 83.60951416 27.52939453 84.69949707 27.52441406 85.82250977 C27.50086514 89.03434765 27.46245718 92.24547808 27.4140625 95.45703125 C27.40149414 96.30749023 27.38892578 97.15794922 27.37597656 98.03417969 C27.1714435 108.08969277 26.06592227 117.946619 24.6015625 127.89453125 C24.37194824 129.49349243 24.37194824 129.49349243 24.13769531 131.12475586 C22.19441349 143.5011522 19.15526505 157.02061912 9.1953125 165.328125 C7.27562864 166.54476674 5.63504198 167.03329174 3.4140625 167.45703125 C3.4140625 168.11703125 3.4140625 168.77703125 3.4140625 169.45703125 C2.269375 169.85921875 2.269375 169.85921875 1.1015625 170.26953125 C-1.56384041 171.24342608 -1.56384041 171.24342608 -3.0234375 172.95703125 C-7.30101585 177.06350647 -13.35526842 176.74036402 -18.8984375 176.64453125 C-19.62611328 176.64388672 -20.35378906 176.64324219 -21.10351562 176.64257812 C-26.44519502 176.59777373 -26.44519502 176.59777373 -27.5859375 175.45703125 C-29.1261962 175.35080651 -30.66839938 175.27227455 -32.2109375 175.20703125 C-37.74896089 174.70646386 -40.4947829 173.20000248 -44.5859375 169.45703125 C-45.26953125 167.2890625 -45.26953125 167.2890625 -45.5859375 165.45703125 C-46.9059375 165.45703125 -48.2259375 165.45703125 -49.5859375 165.45703125 C-51.5859375 161.45703125 -51.5859375 161.45703125 -53.5859375 157.45703125 C-54.11380859 156.48056641 -54.11380859 156.48056641 -54.65234375 155.484375 C-55.68004108 153.2526808 -56.17487005 151.17716407 -56.6484375 148.76953125 C-57.06307022 145.82937006 -57.06307022 145.82937006 -58.5859375 143.45703125 C-59.6415198 140.29028436 -60.10619732 137.32149298 -60.5859375 134.01953125 C-61.27030793 129.31983119 -62.08539867 124.95864775 -63.5859375 120.45703125 C-63.2559375 119.46703125 -62.9259375 118.47703125 -62.5859375 117.45703125 C-62.93380458 115.4816638 -62.93380458 115.4816638 -63.5859375 113.45703125 C-64.52529062 110.35716595 -64.66204738 109.6853609 -63.5859375 106.45703125 C-63.9159375 105.50828125 -64.2459375 104.55953125 -64.5859375 103.58203125 C-65.67255562 100.18634962 -65.45022517 98.82775318 -64.5859375 95.45703125 C-64.5489096 93.79077595 -64.53833788 92.12301806 -64.5859375 90.45703125 C-65.2459375 90.45703125 -65.9059375 90.45703125 -66.5859375 90.45703125 C-66.50214844 89.85117187 -66.41835938 89.2453125 -66.33203125 88.62109375 C-65.66292566 83.11579457 -65.7214951 78.18254196 -66.39453125 72.6875 C-66.64141689 69.81052654 -66.10657846 67.29163205 -65.5859375 64.45703125 C-65.58909864 62.78759888 -65.61530761 61.11815199 -65.65625 59.44921875 C-65.6815166 53.65458588 -64.97075832 48.20434188 -63.8984375 42.51953125 C-63.71909668 41.55950195 -63.53975586 40.59947266 -63.35498047 39.61035156 C-61.9400528 32.44962938 -60.01932922 25.93456388 -56.5859375 19.45703125 C-56.121875 18.56886719 -55.6578125 17.68070312 -55.1796875 16.765625 C-49.40956581 6.46841315 -41.57216306 -0.92994435 -30.1484375 -4.35546875 C-19.55143085 -6.88479544 -9.53052155 -5.6866405 0 0 Z " fill="#2A2A2A" transform="translate(533.5859375,364.54296875)"/>
<path d="M0 0 C1.22072521 -0.00445668 1.22072521 -0.00445668 2.46611154 -0.0090034 C5.16706482 -0.01760861 7.86797336 -0.01919165 10.56893921 -0.02069092 C12.51634819 -0.02532489 14.46375628 -0.03035033 16.41116333 -0.03573608 C21.68419631 -0.0488062 26.9572166 -0.05529447 32.23026323 -0.05974674 C35.53087437 -0.06268617 38.83148211 -0.06679259 42.13209152 -0.07125092 C52.47710103 -0.0849116 62.82210268 -0.09458526 73.16712058 -0.09845281 C85.07527703 -0.10293029 96.98331852 -0.12046989 108.89144003 -0.1494534 C118.11895816 -0.17112657 127.34644407 -0.18116009 136.57398736 -0.18249393 C142.07464491 -0.18353791 147.57519418 -0.18935872 153.07582474 -0.20731354 C158.25514338 -0.22389198 163.43427346 -0.22590265 168.61360931 -0.21717453 C170.50368889 -0.21640936 172.39377903 -0.2206773 174.28383255 -0.23063278 C203.55455976 -0.37564428 228.1465485 8.6239713 251.4258728 26.14044189 C252.4158728 26.80044189 253.4058728 27.46044189 254.4258728 28.14044189 C254.4258728 28.80044189 254.4258728 29.46044189 254.4258728 30.14044189 C255.02270874 30.41501221 255.61954468 30.68958252 256.23446655 30.97247314 C273.8398769 40.35574889 285.50647503 68.15607529 291.2461853 86.07794189 C295.82356171 101.33101176 296.57678046 116.71423484 296.57113647 132.54937744 C296.57413797 133.94079171 296.57754272 135.33220516 296.58131409 136.72361755 C296.590058 140.46361101 296.59248811 144.20358151 296.59312987 147.9435842 C296.59384591 150.2914457 296.59599058 152.63930155 296.59862709 154.98716164 C296.60784898 163.21005237 296.61196598 171.43292702 296.61117554 179.65582275 C296.61057572 187.26916855 296.62111694 194.88244327 296.6369192 202.49577111 C296.65007969 209.07545666 296.65535589 215.65511922 296.65472013 222.2348178 C296.65446761 226.14538287 296.65718014 230.05588466 296.66789818 233.96643639 C296.74752381 265.08613442 296.74752381 265.08613442 294.4258728 280.14044189 C293.4358728 280.47044189 292.4458728 280.80044189 291.4258728 281.14044189 C291.4258728 280.48044189 291.4258728 279.82044189 291.4258728 279.14044189 C290.1058728 278.81044189 288.7858728 278.48044189 287.4258728 278.14044189 C288.4158728 278.14044189 289.4058728 278.14044189 290.4258728 278.14044189 C290.0958728 277.15044189 289.7658728 276.16044189 289.4258728 275.14044189 C289.70158419 273.13168747 290.02823018 271.12865503 290.4258728 269.14044189 C291.4158728 269.14044189 292.4058728 269.14044189 293.4258728 269.14044189 C293.7558728 265.84044189 294.0858728 262.54044189 294.4258728 259.14044189 C293.4358728 259.14044189 292.4458728 259.14044189 291.4258728 259.14044189 C291.7558728 258.48044189 292.0858728 257.82044189 292.4258728 257.14044189 C293.0858728 257.47044189 293.7458728 257.80044189 294.4258728 258.14044189 C294.4258728 257.48044189 294.4258728 256.82044189 294.4258728 256.14044189 C293.4358728 256.14044189 292.4458728 256.14044189 291.4258728 256.14044189 C291.4258728 255.48044189 291.4258728 254.82044189 291.4258728 254.14044189 C292.4158728 254.14044189 293.4058728 254.14044189 294.4258728 254.14044189 C294.4258728 253.48044189 294.4258728 252.82044189 294.4258728 252.14044189 C293.7658728 252.14044189 293.1058728 252.14044189 292.4258728 252.14044189 C292.4258728 251.48044189 292.4258728 250.82044189 292.4258728 250.14044189 C293.0858728 250.14044189 293.7458728 250.14044189 294.4258728 250.14044189 C294.4258728 248.82044189 294.4258728 247.50044189 294.4258728 246.14044189 C293.7658728 245.81044189 293.1058728 245.48044189 292.4258728 245.14044189 C293.0858728 245.14044189 293.7458728 245.14044189 294.4258728 245.14044189 C294.4258728 243.49044189 294.4258728 241.84044189 294.4258728 240.14044189 C293.1058728 239.81044189 291.7858728 239.48044189 290.4258728 239.14044189 C291.0858728 239.14044189 291.7458728 239.14044189 292.4258728 239.14044189 C292.55056379 233.56214174 292.55056379 233.56214174 291.4258728 228.14044189 C292.0858728 227.81044189 292.7458728 227.48044189 293.4258728 227.14044189 C293.8941993 224.55438858 293.8941993 224.55438858 294.0508728 221.57794189 C294.12563843 220.56602783 294.20040405 219.55411377 294.2774353 218.51153564 C294.32641968 217.72907471 294.37540405 216.94661377 294.4258728 216.14044189 C293.7658728 215.81044189 293.1058728 215.48044189 292.4258728 215.14044189 C293.0858728 215.14044189 293.7458728 215.14044189 294.4258728 215.14044189 C294.0958728 214.37731689 293.7658728 213.61419189 293.4258728 212.82794189 C292.4258728 210.14044189 292.4258728 210.14044189 292.4258728 207.14044189 C292.0958728 206.15044189 291.7658728 205.16044189 291.4258728 204.14044189 C291.54696655 201.87872314 291.54696655 201.87872314 291.8633728 199.45294189 C291.96520874 198.64469971 292.06704468 197.83645752 292.17196655 197.00372314 C292.25575562 196.38884033 292.33954468 195.77395752 292.4258728 195.14044189 C293.0858728 195.14044189 293.7458728 195.14044189 294.4258728 195.14044189 C294.4258728 194.48044189 294.4258728 193.82044189 294.4258728 193.14044189 C293.7658728 193.14044189 293.1058728 193.14044189 292.4258728 193.14044189 C292.4258728 190.83044189 292.4258728 188.52044189 292.4258728 186.14044189 C291.4358728 185.81044189 290.4458728 185.48044189 289.4258728 185.14044189 C290.4158728 185.14044189 291.4058728 185.14044189 292.4258728 185.14044189 C292.4258728 184.48044189 292.4258728 183.82044189 292.4258728 183.14044189 C291.7658728 182.81044189 291.1058728 182.48044189 290.4258728 182.14044189 C290.6114978 181.54231689 290.7971228 180.94419189 290.9883728 180.32794189 C291.64680967 177.97635428 291.64680967 177.97635428 290.4258728 175.14044189 C291.0858728 175.14044189 291.7458728 175.14044189 292.4258728 175.14044189 C292.0958728 171.84044189 291.7658728 168.54044189 291.4258728 165.14044189 C292.0858728 165.14044189 292.7458728 165.14044189 293.4258728 165.14044189 C293.4258728 164.15044189 293.4258728 163.16044189 293.4258728 162.14044189 C292.7658728 161.81044189 292.1058728 161.48044189 291.4258728 161.14044189 C291.4258728 158.50044189 291.4258728 155.86044189 291.4258728 153.14044189 C292.4158728 153.14044189 293.4058728 153.14044189 294.4258728 153.14044189 C294.4258728 150.50044189 294.4258728 147.86044189 294.4258728 145.14044189 C293.7658728 145.14044189 293.1058728 145.14044189 292.4258728 145.14044189 C290.81522651 141.48964363 289.97693189 138.0896987 289.4258728 134.14044189 C290.0858728 134.14044189 290.7458728 134.14044189 291.4258728 134.14044189 C291.5702478 133.02669189 291.7146228 131.91294189 291.8633728 130.76544189 C292.4258728 127.14044189 292.4258728 127.14044189 293.4258728 125.14044189 C292.7658728 124.81044189 292.1058728 124.48044189 291.4258728 124.14044189 C291.4258728 123.48044189 291.4258728 122.82044189 291.4258728 122.14044189 C292.0858728 122.14044189 292.7458728 122.14044189 293.4258728 122.14044189 C293.07800572 120.16507445 293.07800572 120.16507445 292.4258728 118.14044189 C291.7658728 117.81044189 291.1058728 117.48044189 290.4258728 117.14044189 C291.0858728 116.15044189 291.7458728 115.16044189 292.4258728 114.14044189 C291.59540696 111.56427266 291.59540696 111.56427266 290.4258728 109.14044189 C290.4258728 108.48044189 290.4258728 107.82044189 290.4258728 107.14044189 C290.13242331 105.34555664 289.81687917 103.55424296 289.4883728 101.76544189 C289.31434937 100.80895752 289.14032593 99.85247314 288.96102905 98.86700439 C288.51567925 96.59799593 287.99809083 94.37935845 287.4258728 92.14044189 C287.11109062 90.66175922 286.79865969 89.18257439 286.4883728 87.70294189 C285.75469519 84.3434707 284.73637472 81.32308941 283.4258728 78.14044189 C283.4258728 77.15044189 283.4258728 76.16044189 283.4258728 75.14044189 C282.4358728 74.48044189 281.4458728 73.82044189 280.4258728 73.14044189 C279.00437796 70.2226367 278.4258728 68.40839892 278.4258728 65.14044189 C277.7658728 65.14044189 277.1058728 65.14044189 276.4258728 65.14044189 C274.3915175 61.4107905 273.4258728 59.47139148 273.4258728 55.14044189 C272.7658728 55.14044189 272.1058728 55.14044189 271.4258728 55.14044189 C270.7658728 53.16044189 270.1058728 51.18044189 269.4258728 49.14044189 C268.4358728 49.14044189 267.4458728 49.14044189 266.4258728 49.14044189 C266.0236853 48.30512939 266.0236853 48.30512939 265.6133728 47.45294189 C265.2214978 46.68981689 264.8296228 45.92669189 264.4258728 45.14044189 C263.9927478 44.27419189 263.5596228 43.40794189 263.1133728 42.51544189 C261.13744629 39.73450829 259.64639378 39.09789408 256.4258728 38.14044189 C256.4258728 37.48044189 256.4258728 36.82044189 256.4258728 36.14044189 C254.4458728 36.14044189 252.4658728 36.14044189 250.4258728 36.14044189 C250.4258728 35.48044189 250.4258728 34.82044189 250.4258728 34.14044189 C251.0858728 34.14044189 251.7458728 34.14044189 252.4258728 34.14044189 C252.39464338 32.17287737 252.39464338 32.17287737 251.4258728 30.14044189 C249.43950983 29.4341795 247.43739022 28.77150618 245.4258728 28.14044189 C243.0508728 26.14044189 243.0508728 26.14044189 241.4258728 24.14044189 C241.4258728 23.48044189 241.4258728 22.82044189 241.4258728 22.14044189 C240.1058728 21.81044189 238.7858728 21.48044189 237.4258728 21.14044189 C237.4258728 20.15044189 237.4258728 19.16044189 237.4258728 18.14044189 C236.9102478 18.01669189 236.3946228 17.89294189 235.8633728 17.76544189 C232.69884929 16.95402561 229.56462296 16.04585059 226.4258728 15.14044189 C226.4258728 14.48044189 226.4258728 13.82044189 226.4258728 13.14044189 C222.4658728 12.48044189 218.5058728 11.82044189 214.4258728 11.14044189 C214.4258728 10.48044189 214.4258728 9.82044189 214.4258728 9.14044189 C213.6627478 9.03731689 212.8996228 8.93419189 212.1133728 8.82794189 C209.09263624 8.26475372 206.35547745 7.52754522 203.4258728 6.64044189 C192.38266801 3.57703597 180.79671496 4.00082719 169.4258728 4.14044189 C165.68426178 4.14044189 162.13633723 3.62706018 158.4258728 3.14044189 C158.4258728 3.80044189 158.4258728 4.46044189 158.4258728 5.14044189 C157.5389978 4.93419189 156.6521228 4.72794189 155.7383728 4.51544189 C152.20060171 4.11493951 150.55954313 4.57360673 147.4258728 6.14044189 C147.4258728 5.48044189 147.4258728 4.82044189 147.4258728 4.14044189 C146.4358728 4.14044189 145.4458728 4.14044189 144.4258728 4.14044189 C144.4258728 4.80044189 144.4258728 5.46044189 144.4258728 6.14044189 C143.6214978 5.67637939 143.6214978 5.67637939 142.8008728 5.20294189 C137.64440819 2.89610246 133.26233544 3.13603497 127.8008728 4.14044189 C121.07395982 5.20446529 112.7571292 6.30607009 106.4258728 3.14044189 C106.0958728 3.80044189 105.7658728 4.46044189 105.4258728 5.14044189 C103.4458728 4.81044189 101.4658728 4.48044189 99.4258728 4.14044189 C99.4258728 3.48044189 99.4258728 2.82044189 99.4258728 2.14044189 C98.4358728 2.80044189 97.4458728 3.46044189 96.4258728 4.14044189 C93.28915405 4.33575439 93.28915405 4.33575439 89.7383728 4.26544189 C88.55888062 4.24739502 87.37938843 4.22934814 86.16415405 4.21075439 C85.26052124 4.18755127 84.35688843 4.16434814 83.4258728 4.14044189 C82.7658728 5.46044189 82.1058728 6.78044189 81.4258728 8.14044189 C78.4258728 7.14044189 78.4258728 7.14044189 77.4258728 6.14044189 C71.5086239 3.93867486 66.62761006 2.67160939 60.4258728 4.14044189 C59.1058728 4.14044189 57.7858728 4.14044189 56.4258728 4.14044189 C55.2708728 4.16106689 54.1158728 4.18169189 52.9258728 4.20294189 C50.1447714 4.15327937 48.04141631 3.97741582 45.4258728 3.14044189 C45.4258728 3.80044189 45.4258728 4.46044189 45.4258728 5.14044189 C44.7658728 5.14044189 44.1058728 5.14044189 43.4258728 5.14044189 C43.4258728 4.48044189 43.4258728 3.82044189 43.4258728 3.14044189 C40.7858728 3.14044189 38.1458728 3.14044189 35.4258728 3.14044189 C35.4258728 2.48044189 35.4258728 1.82044189 35.4258728 1.14044189 C34.7658728 1.14044189 34.1058728 1.14044189 33.4258728 1.14044189 C33.0958728 2.13044189 32.7658728 3.12044189 32.4258728 4.14044189 C29.4558728 3.81044189 26.4858728 3.48044189 23.4258728 3.14044189 C22.7658728 4.13044189 22.1058728 5.12044189 21.4258728 6.14044189 C20.4358728 5.64544189 20.4358728 5.64544189 19.4258728 5.14044189 C17.33539232 4.55249426 15.60221733 4.14044189 13.4258728 4.14044189 C9.4258728 4.14044189 5.4258728 4.14044189 1.4258728 4.14044189 C1.0958728 4.80044189 0.7658728 5.46044189 0.4258728 6.14044189 C0.4258728 5.48044189 0.4258728 4.82044189 0.4258728 4.14044189 C-3.18405099 4.79629379 -3.18405099 4.79629379 -6.5741272 6.14044189 C-7.5641272 5.81044189 -8.5541272 5.48044189 -9.5741272 5.14044189 C-11.74128277 6.01528105 -11.74128277 6.01528105 -13.5741272 7.14044189 C-13.5741272 6.48044189 -13.5741272 5.82044189 -13.5741272 5.14044189 C-14.35916626 5.34540283 -15.14420532 5.55036377 -15.95303345 5.76153564 C-25.5751147 8.22903869 -25.5751147 8.22903869 -29.6366272 8.64044189 C-32.60054582 8.85354493 -32.60054582 8.85354493 -34.1991272 10.76544189 C-34.8797522 11.44606689 -34.8797522 11.44606689 -35.5741272 12.14044189 C-36.29342407 11.91356689 -37.01272095 11.68669189 -37.7538147 11.45294189 C-41.84298142 10.99984863 -43.99914191 13.11823759 -47.0741272 15.51544189 C-50.77033483 18.34548486 -53.80149694 20.6596172 -58.5741272 21.14044189 C-58.9041272 22.13044189 -59.2341272 23.12044189 -59.5741272 24.14044189 C-60.8941272 23.81044189 -62.2141272 23.48044189 -63.5741272 23.14044189 C-64.2341272 24.13044189 -64.8941272 25.12044189 -65.5741272 26.14044189 C-68.07076973 27.02634731 -69.8952806 27.14044189 -72.5741272 27.14044189 C-53.32598171 9.23519028 -26.04309217 -0.0304228 0 0 Z " fill="#525252" transform="translate(422.5741271972656,257.85955810546875)"/>
<path d="M0 0 C3.15099549 2.85787963 4.77644972 6.10855716 6.71875 9.84375 C7.86008332 11.99749315 7.86008332 11.99749315 9.44140625 13.33203125 C27.82651593 33.00732407 24.31088779 71.91833412 24.26865101 96.41150594 C24.26350723 100.34013071 24.2683052 104.26874719 24.27142334 108.19737244 C24.27503858 114.78760484 24.27032822 121.37779207 24.26074219 127.96801758 C24.24985785 135.53718879 24.25339301 143.1062522 24.264395 150.67542082 C24.27353271 157.22975576 24.2747219 163.78405865 24.26951766 170.33839792 C24.26643386 174.22874522 24.26588779 178.1190422 24.27259064 182.00938606 C24.31876746 212.88082633 24.31876746 212.88082633 22 228 C21.01 228.33 20.02 228.66 19 229 C19 228.34 19 227.68 19 227 C17.68 226.67 16.36 226.34 15 226 C15.99 226 16.98 226 18 226 C17.67 225.01 17.34 224.02 17 223 C17.27571139 220.99124558 17.60235737 218.98821313 18 217 C18.99 217 19.98 217 21 217 C21.33 213.7 21.66 210.4 22 207 C21.01 207 20.02 207 19 207 C19.33 206.34 19.66 205.68 20 205 C20.66 205.33 21.32 205.66 22 206 C22 205.34 22 204.68 22 204 C21.01 204 20.02 204 19 204 C19 203.34 19 202.68 19 202 C19.99 202 20.98 202 22 202 C22 201.34 22 200.68 22 200 C21.34 200 20.68 200 20 200 C20 199.34 20 198.68 20 198 C20.66 198 21.32 198 22 198 C22 196.68 22 195.36 22 194 C21.34 193.67 20.68 193.34 20 193 C20.66 193 21.32 193 22 193 C22 191.35 22 189.7 22 188 C20.68 187.67 19.36 187.34 18 187 C18.66 187 19.32 187 20 187 C20.12469099 181.42169984 20.12469099 181.42169984 19 176 C19.66 175.67 20.32 175.34 21 175 C21.4683265 172.41394668 21.4683265 172.41394668 21.625 169.4375 C21.73714844 167.91962891 21.73714844 167.91962891 21.8515625 166.37109375 C21.90054688 165.58863281 21.94953125 164.80617188 22 164 C21.34 163.67 20.68 163.34 20 163 C20.66 163 21.32 163 22 163 C21.67 162.236875 21.34 161.47375 21 160.6875 C20 158 20 158 20 155 C19.67 154.01 19.34 153.02 19 152 C19.12109375 149.73828125 19.12109375 149.73828125 19.4375 147.3125 C19.53933594 146.50425781 19.64117188 145.69601562 19.74609375 144.86328125 C19.82988281 144.24839844 19.91367187 143.63351562 20 143 C20.66 143 21.32 143 22 143 C22 142.34 22 141.68 22 141 C21.34 141 20.68 141 20 141 C20 138.69 20 136.38 20 134 C19.01 133.67 18.02 133.34 17 133 C17.99 133 18.98 133 20 133 C20 132.34 20 131.68 20 131 C19.34 130.67 18.68 130.34 18 130 C18.185625 129.401875 18.37125 128.80375 18.5625 128.1875 C19.22093687 125.83591238 19.22093687 125.83591238 18 123 C18.66 123 19.32 123 20 123 C19.505 118.05 19.505 118.05 19 113 C19.66 113 20.32 113 21 113 C21 112.01 21 111.02 21 110 C20.34 109.67 19.68 109.34 19 109 C19 106.36 19 103.72 19 101 C19.99 101 20.98 101 22 101 C22 98.36 22 95.72 22 93 C21.34 93 20.68 93 20 93 C18.38935371 89.34920174 17.55105909 85.9492568 17 82 C17.66 82 18.32 82 19 82 C19.2165625 80.329375 19.2165625 80.329375 19.4375 78.625 C20 75 20 75 21 73 C20.34 72.67 19.68 72.34 19 72 C19 71.34 19 70.68 19 70 C19.66 70 20.32 70 21 70 C20.65213292 68.02463255 20.65213292 68.02463255 20 66 C19.34 65.67 18.68 65.34 18 65 C18.66 64.01 19.32 63.02 20 62 C19.16953416 59.42383077 19.16953416 59.42383077 18 57 C18 56.34 18 55.68 18 55 C17.70655051 53.20511474 17.39100636 51.41380107 17.0625 49.625 C16.80146484 48.19027344 16.80146484 48.19027344 16.53515625 46.7265625 C16.08980645 44.45755403 15.57221803 42.23891656 15 40 C14.68521782 38.52131732 14.37278688 37.0421325 14.0625 35.5625 C13.32882238 32.20302881 12.31050192 29.18264752 11 26 C11 25.01 11 24.02 11 23 C10.01 22.34 9.02 21.68 8 21 C6.57850516 18.0821948 6 16.26795703 6 13 C5.34 13 4.68 13 4 13 C1.96564469 9.27034861 1 7.33094958 1 3 C0.34 3 -0.32 3 -1 3 C-0.67 2.01 -0.34 1.02 0 0 Z " fill="#2F2F2F" transform="translate(695,310)"/>
<path d="M0 0 C0.33 0 0.66 0 1 0 C1.01981934 1.29921387 1.03963867 2.59842773 1.06005859 3.93701172 C1.13724077 8.84635942 1.22576435 13.75545307 1.31738281 18.66455078 C1.35521498 20.77257197 1.39013912 22.88064775 1.421875 24.98876953 C1.9910455 62.35836986 5.8565036 100.85018987 32.875 129.25 C52.51245087 147.92104088 75.52295367 153.60355159 101.87890625 153.28125 C122.27638097 152.63830359 140.1943528 145.9216114 156 133 C156.33 133.66 156.66 134.32 157 135 C156.01 135.66 155.02 136.32 154 137 C153.814375 137.99 153.814375 137.99 153.625 139 C153 141 153 141 150.75 142.1875 C148.17493405 142.94831494 145.64555693 143.54647595 143 144 C143 144.66 143 145.32 143 146 C140.09399739 147.25664978 138.20395416 148 135 148 C135 149.32 135 150.64 135 152 C133.43883181 152.33951619 131.87598662 152.67132544 130.3125 153 C129.44238281 153.185625 128.57226562 153.37125 127.67578125 153.5625 C125 154 125 154 122.29296875 153.9375 C119.79909982 153.74251509 119.79909982 153.74251509 118 156 C115.12042742 156.95065394 112.34981931 157.17839303 109.33203125 157.31640625 C107.99108398 157.37924805 107.99108398 157.37924805 106.62304688 157.44335938 C105.69556641 157.48267578 104.76808594 157.52199219 103.8125 157.5625 C102.90435547 157.60568359 101.99621094 157.64886719 101.06054688 157.69335938 C95.36770826 157.95008724 89.69842101 158.04074458 84 158 C84 157.34 84 156.68 84 156 C83.484375 156.165 82.96875 156.33 82.4375 156.5 C77.45859831 157.52131317 73.43393913 157.51256551 69 155 C67.34178227 154.62690101 65.67422986 154.29299023 64 154 C62.66457061 153.67516582 61.33038449 153.3449145 60 153 C60 152.34 60 151.68 60 151 C59.278125 150.896875 58.55625 150.79375 57.8125 150.6875 C53.4460732 149.62015123 49.87732065 147.48307236 47 144 C47 143.34 47 142.68 47 142 C46.40832031 141.84144531 45.81664062 141.68289063 45.20703125 141.51953125 C39.90940413 139.9553053 36.56621806 138.43075577 33 134 C32.505 132.88625 32.505 132.88625 32 131.75 C31.67 131.1725 31.34 130.595 31 130 C30.23300781 129.92007813 29.46601563 129.84015625 28.67578125 129.7578125 C26 129 26 129 23.98046875 126.3828125 C23.38878906 125.30773437 22.79710937 124.23265625 22.1875 123.125 C21.58292969 122.05507813 20.97835938 120.98515625 20.35546875 119.8828125 C19 117 19 117 19 114 C18.34 114 17.68 114 17 114 C16.67 112.68 16.34 111.36 16 110 C14.68 110 13.36 110 12 110 C11.71125 108.7625 11.4225 107.525 11.125 106.25 C10.38441916 103.2506476 9.42358162 100.74547884 8 98 C8 97.01 8 96.02 8 95 C7.34 94.67 6.68 94.34 6 94 C5.27306096 92.02111039 4.60183749 90.02045442 4 88 C4.66 88 5.32 88 6 88 C5.505 85.03 5.505 85.03 5 82 C4.01 81.67 3.02 81.34 2 81 C0.7 72.3875 0.7 72.3875 1.5 68.6875 C2.04817159 65.74107773 2.06954294 62.9903466 2 60 C1.34 60 0.68 60 0 60 C0.33 58.68 0.66 57.36 1 56 C0.01 56 -0.98 56 -2 56 C-1.34 54.35 -0.68 52.7 0 51 C-0.66 50.67 -1.32 50.34 -2 50 C-1 46 -1 46 0 42 C-0.99 41.67 -1.98 41.34 -3 41 C-2.67 40.01 -2.34 39.02 -2 38 C-2.66 38 -3.32 38 -4 38 C-4 34.33333333 -4 30.66666667 -4 27 C-3.01 27 -2.02 27 -1 27 C-1.33 26.34 -1.66 25.68 -2 25 C-2.22075843 19.59141851 -1.67978326 14.3532932 -1 9 C-1.66 9 -2.32 9 -3 9 C-3 8.34 -3 7.68 -3 7 C-2.34 7 -1.68 7 -1 7 C-1.33 5.35 -1.66 3.7 -2 2 C-1.34 2 -0.68 2 0 2 C0 1.34 0 0.68 0 0 Z " fill="#4B4B4B" transform="translate(417,430)"/>
<path d="M0 0 C3.24227632 3.59202624 4.32348681 7.68480313 5.5625 12.25 C5.87477539 13.30960937 5.87477539 13.30960937 6.19335938 14.390625 C9.72540777 27.14585932 10.30101924 40.33880504 10.2746582 53.49633789 C10.27902198 54.96875258 10.28421056 56.44116502 10.29014587 57.91357422 C10.30337326 61.86241848 10.30413261 65.81116608 10.30158257 69.76002812 C10.30050096 73.08403976 10.3054266 76.40803277 10.310188 79.73204035 C10.32122863 87.59212679 10.32175251 95.45216544 10.31567383 103.31225586 C10.30964869 111.35447171 10.32192049 119.39651196 10.3432439 127.43869787 C10.36100769 134.40069232 10.36683798 141.36263164 10.36360615 148.32464784 C10.36181531 152.45723949 10.36420349 156.58970608 10.37832069 160.72227669 C10.52193828 206.69012629 10.52193828 206.69012629 3.4375 226.25 C3.09452881 227.23323242 2.75155762 228.21646484 2.39819336 229.22949219 C-5.54992948 251.18398554 -18.33928715 268.76648492 -35 285 C-35.66 284.67 -36.32 284.34 -37 284 C-36.2265625 283.17757813 -35.453125 282.35515625 -34.65625 281.5078125 C-21.03800244 266.95317336 -8.90553405 251.93022847 -2 233 C-1.65582031 232.14664063 -1.31164062 231.29328125 -0.95703125 230.4140625 C8.35090829 206.6627685 8.31189366 181.82092356 8.26865101 156.72281957 C8.2635112 152.79465683 8.26830432 148.86650244 8.27142334 144.93833923 C8.27504055 138.34632666 8.27032385 131.75435921 8.26074219 125.16235352 C8.24986655 117.59379107 8.25338589 110.02533651 8.264395 102.45677668 C8.27353789 95.90329552 8.27471915 89.3498464 8.26951766 82.79636091 C8.26643549 78.90652578 8.26588289 75.01674095 8.27259064 71.12690926 C8.8082664 37.5770705 8.8082664 37.5770705 0.875 5.2421875 C0 3 0 3 0 0 Z " fill="#020202" transform="translate(710,333)"/>
<path d="M0 0 C4.42501739 -0.07547261 8.84967084 -0.12920892 13.27514648 -0.16479492 C14.77325992 -0.17966572 16.2713316 -0.19996866 17.76928711 -0.22631836 C46.16867148 -0.71251124 70.53714021 9.09787613 93 26 C93.99 26.66 94.98 27.32 96 28 C96 28.66 96 29.32 96 30 C96.59683594 30.27457031 97.19367188 30.54914063 97.80859375 30.83203125 C107.90683969 36.21416233 119.0611093 52.42054357 123 63 C122.67 63.66 122.34 64.32 122 65 C121.31164062 63.73542969 121.31164062 63.73542969 120.609375 62.4453125 C119.99578125 61.34960938 119.3821875 60.25390625 118.75 59.125 C118.14671875 58.03445313 117.5434375 56.94390625 116.921875 55.8203125 C115.04774923 53.07007102 114.07934858 52.07640946 111 51 C111 50.34 111 49.68 111 49 C110.01 49 109.02 49 108 49 C107.5978125 48.1646875 107.5978125 48.1646875 107.1875 47.3125 C106.795625 46.549375 106.40375 45.78625 106 45 C105.566875 44.13375 105.13375 43.2675 104.6875 42.375 C102.71157349 39.5940664 101.22052097 38.95745218 98 38 C98 37.34 98 36.68 98 36 C96.02 36 94.04 36 92 36 C92 35.34 92 34.68 92 34 C92.66 34 93.32 34 94 34 C93.96877057 32.03243548 93.96877057 32.03243548 93 30 C91.01363702 29.29373761 89.01151741 28.63106429 87 28 C84.625 26 84.625 26 83 24 C83 23.34 83 22.68 83 22 C81.68 21.67 80.36 21.34 79 21 C79 20.01 79 19.02 79 18 C78.484375 17.87625 77.96875 17.7525 77.4375 17.625 C74.27297649 16.81358372 71.13875015 15.9054087 68 15 C68 14.34 68 13.68 68 13 C64.04 12.34 60.08 11.68 56 11 C56 10.34 56 9.68 56 9 C55.236875 8.896875 54.47375 8.79375 53.6875 8.6875 C49.60600719 7.92654371 45.69185627 6.81893144 41.69921875 5.69140625 C39.40190553 5.10294831 37.22578851 4.70408426 34.875 4.4375 C33.92625 4.293125 32.9775 4.14875 32 4 C31.67 3.34 31.34 2.68 31 2 C21.1 2 11.2 2 1 2 C0.67 1.34 0.34 0.68 0 0 Z " fill="#4F4F4F" transform="translate(581,258)"/>
<path d="M0 0 C2.37041881 0.0251499 4.74086375 0.04795108 7.11132812 0.06835938 C12.84563464 0.12273979 18.57894001 0.20582034 24.3125 0.3125 C23.9825 1.3025 23.6525 2.2925 23.3125 3.3125 C20.3425 2.9825 17.3725 2.6525 14.3125 2.3125 C13.6525 3.3025 12.9925 4.2925 12.3125 5.3125 C11.3225 4.8175 11.3225 4.8175 10.3125 4.3125 C8.22201951 3.72455236 6.48884453 3.3125 4.3125 3.3125 C0.3125 3.3125 -3.6875 3.3125 -7.6875 3.3125 C-8.0175 3.9725 -8.3475 4.6325 -8.6875 5.3125 C-8.6875 4.6525 -8.6875 3.9925 -8.6875 3.3125 C-12.29742379 3.96835189 -12.29742379 3.96835189 -15.6875 5.3125 C-16.6775 4.9825 -17.6675 4.6525 -18.6875 4.3125 C-20.85465557 5.18733915 -20.85465557 5.18733915 -22.6875 6.3125 C-22.6875 5.6525 -22.6875 4.9925 -22.6875 4.3125 C-23.47253906 4.51746094 -24.25757813 4.72242188 -25.06640625 4.93359375 C-34.6884875 7.40109679 -34.6884875 7.40109679 -38.75 7.8125 C-41.71391862 8.02560303 -41.71391862 8.02560303 -43.3125 9.9375 C-43.993125 10.618125 -43.993125 10.618125 -44.6875 11.3125 C-45.40679687 11.085625 -46.12609375 10.85875 -46.8671875 10.625 C-50.95635422 10.17190673 -53.11251471 12.29029569 -56.1875 14.6875 C-59.88370763 17.51754297 -62.91486974 19.83167531 -67.6875 20.3125 C-68.0175 21.3025 -68.3475 22.2925 -68.6875 23.3125 C-70.0075 22.9825 -71.3275 22.6525 -72.6875 22.3125 C-73.3475 23.3025 -74.0075 24.2925 -74.6875 25.3125 C-77.18414253 26.19840541 -79.00865341 26.3125 -81.6875 26.3125 C-58.78650673 5.00925045 -30.19567434 -0.56386821 0 0 Z " fill="#3A3A3A" transform="translate(431.6875,258.6875)"/>
<path d="M0 0 C3.15099549 2.85787963 4.77644972 6.10855716 6.71875 9.84375 C7.86008332 11.99749315 7.86008332 11.99749315 9.44140625 13.33203125 C11.83888276 15.89775172 13.05684239 19.00294522 14.4375 22.1875 C14.89600342 23.2391333 14.89600342 23.2391333 15.36376953 24.31201172 C20.07411419 35.51748982 23.15154441 47.75096271 23.09765625 59.9296875 C23.09443359 61.21875 23.09121094 62.5078125 23.08789062 63.8359375 C23.07953733 65.18229236 23.07107241 66.52864652 23.0625 67.875 C23.0574783 69.24479004 23.05291657 70.61458185 23.04882812 71.984375 C23.03707254 75.3229619 23.02063964 78.66145815 23 82 C22.67 82 22.34 82 22 82 C21.95101562 81.36191406 21.90203125 80.72382813 21.8515625 80.06640625 C21.77679687 79.24011719 21.70203125 78.41382813 21.625 77.5625 C21.55539062 76.73878906 21.48578125 75.91507812 21.4140625 75.06640625 C21.27742187 74.38449219 21.14078125 73.70257813 21 73 C20.34 72.67 19.68 72.34 19 72 C19 71.34 19 70.68 19 70 C19.66 70 20.32 70 21 70 C20.65213292 68.02463255 20.65213292 68.02463255 20 66 C19.34 65.67 18.68 65.34 18 65 C18.66 64.01 19.32 63.02 20 62 C19.16953416 59.42383077 19.16953416 59.42383077 18 57 C18 56.34 18 55.68 18 55 C17.70655051 53.20511474 17.39100636 51.41380107 17.0625 49.625 C16.80146484 48.19027344 16.80146484 48.19027344 16.53515625 46.7265625 C16.08980645 44.45755403 15.57221803 42.23891656 15 40 C14.68521782 38.52131732 14.37278688 37.0421325 14.0625 35.5625 C13.32882238 32.20302881 12.31050192 29.18264752 11 26 C11 25.01 11 24.02 11 23 C10.01 22.34 9.02 21.68 8 21 C6.57850516 18.0821948 6 16.26795703 6 13 C5.34 13 4.68 13 4 13 C1.96564469 9.27034861 1 7.33094958 1 3 C0.34 3 -0.32 3 -1 3 C-0.67 2.01 -0.34 1.02 0 0 Z " fill="#3E3E3E" transform="translate(695,310)"/>
<path d="M0 0 C10.78602972 -0.73125625 20.74073329 1.95835234 29.0078125 9.08984375 C41.35350557 20.92718475 48.30074113 37.29225519 49.1171875 54.46484375 C49.12367416 56.31029789 49.06959068 58.15584702 49 60 C48.01 59.34 47.02 58.68 46 58 C45.59375 55.86328125 45.59375 55.86328125 45.5 53.3125 C45.27039081 49.8583792 44.86075831 47.19463915 43.375 44.0625 C42 41 42 41 43 38 C42.67 37.67 42.34 37.34 42 37 C39.31342365 34.31342365 38.34023957 31.53335886 37 28 C37 26.68 37 25.36 37 24 C36.01 23.67 35.02 23.34 34 23 C33.3125 20.9375 33.3125 20.9375 33 19 C32.34 19 31.68 19 31 19 C30.62875 18.29875 30.2575 17.5975 29.875 16.875 C27.61521735 13.40999993 25.02622855 11.64133445 21.64453125 9.33203125 C21.10183594 8.89246094 20.55914063 8.45289063 20 8 C20 7.34 20 6.68 20 6 C19.37351562 5.86722656 18.74703125 5.73445313 18.1015625 5.59765625 C17.28429687 5.42105469 16.46703125 5.24445313 15.625 5.0625 C14.81289063 4.88847656 14.00078125 4.71445312 13.1640625 4.53515625 C11 4 11 4 9 3 C7.29636178 2.77377919 5.58671299 2.59111527 3.875 2.4375 C2.96492188 2.35371094 2.05484375 2.26992188 1.1171875 2.18359375 C0.41851562 2.12300781 -0.28015625 2.06242187 -1 2 C-0.67 1.34 -0.34 0.68 0 0 Z " fill="#434343" transform="translate(509,359)"/>
<path d="M0 0 C0.33 0 0.66 0 1 0 C1.01981934 1.29921387 1.03963867 2.59842773 1.06005859 3.93701172 C1.13724077 8.84635942 1.22576435 13.75545307 1.31738281 18.66455078 C1.35521498 20.77257197 1.39013912 22.88064775 1.421875 24.98876953 C1.66986073 41.27058238 2.49936313 57.28370443 5.5625 73.3125 C5.68818359 74.00021484 5.81386719 74.68792969 5.94335938 75.39648438 C6.45868388 78.19974178 6.99802292 80.99111564 7.6171875 83.7734375 C8.11814053 86.6871439 7.60113795 89.12789647 7 92 C6.01 91.01 5.02 90.02 4 89 C4.99 88.505 4.99 88.505 6 88 C5.505 85.03 5.505 85.03 5 82 C4.01 81.67 3.02 81.34 2 81 C0.7 72.3875 0.7 72.3875 1.5 68.6875 C2.04817159 65.74107773 2.06954294 62.9903466 2 60 C1.34 60 0.68 60 0 60 C0.33 58.68 0.66 57.36 1 56 C0.01 56 -0.98 56 -2 56 C-1.34 54.35 -0.68 52.7 0 51 C-0.66 50.67 -1.32 50.34 -2 50 C-1 46 -1 46 0 42 C-0.99 41.67 -1.98 41.34 -3 41 C-2.67 40.01 -2.34 39.02 -2 38 C-2.66 38 -3.32 38 -4 38 C-4 34.33333333 -4 30.66666667 -4 27 C-3.01 27 -2.02 27 -1 27 C-1.33 26.34 -1.66 25.68 -2 25 C-2.22075843 19.59141851 -1.67978326 14.3532932 -1 9 C-1.66 9 -2.32 9 -3 9 C-3 8.34 -3 7.68 -3 7 C-2.34 7 -1.68 7 -1 7 C-1.33 5.35 -1.66 3.7 -2 2 C-1.34 2 -0.68 2 0 2 C0 1.34 0 0.68 0 0 Z " fill="#404040" transform="translate(417,430)"/>
<path d="M0 0 C0.33 0 0.66 0 1 0 C1.04668233 10.64134791 1.08204928 21.28267079 1.10362434 31.92410088 C1.11398792 36.86724381 1.12800848 41.81031583 1.15087891 46.75341797 C1.17287588 51.53859258 1.18462417 56.32369971 1.18975449 61.10892105 C1.19340272 62.9194253 1.2005239 64.72992656 1.21146011 66.54040146 C1.28075896 78.50684721 0.58194252 90.13559928 -1 102 C-2.485 102.495 -2.485 102.495 -4 103 C-4 102.34 -4 101.68 -4 101 C-5.32 100.67 -6.64 100.34 -8 100 C-7.01 100 -6.02 100 -5 100 C-5.33 99.01 -5.66 98.02 -6 97 C-5.72428861 94.99124558 -5.39764263 92.98821313 -5 91 C-4.01 91 -3.02 91 -2 91 C-1.67 87.7 -1.34 84.4 -1 81 C-1.99 81 -2.98 81 -4 81 C-3.505 80.01 -3.505 80.01 -3 79 C-2.34 79.33 -1.68 79.66 -1 80 C-1 79.34 -1 78.68 -1 78 C-1.99 78 -2.98 78 -4 78 C-4 77.34 -4 76.68 -4 76 C-3.01 76 -2.02 76 -1 76 C-1 75.34 -1 74.68 -1 74 C-1.66 74 -2.32 74 -3 74 C-3 73.34 -3 72.68 -3 72 C-2.34 72 -1.68 72 -1 72 C-1 70.68 -1 69.36 -1 68 C-1.66 67.67 -2.32 67.34 -3 67 C-2.34 67 -1.68 67 -1 67 C-1 65.35 -1 63.7 -1 62 C-2.32 61.67 -3.64 61.34 -5 61 C-4.34 61 -3.68 61 -3 61 C-2.87530901 55.42169984 -2.87530901 55.42169984 -4 50 C-2.515 49.505 -2.515 49.505 -1 49 C-0.67 32.83 -0.34 16.66 0 0 Z " fill="#2B2B2B" transform="translate(718,436)"/>
<path d="M0 0 C0.99 0 1.98 0 3 0 C5.81407536 8.44222608 5.16550422 18.24445278 5.125 27.0625 C5.12161621 28.14233154 5.11823242 29.22216309 5.11474609 30.3347168 C5.02794309 44.00215255 4.7612874 57.56888363 2 71 C1.01 71 0.02 71 -1 71 C-0.01 70.505 -0.01 70.505 1 70 C0.91621094 69.15695312 0.83242188 68.31390625 0.74609375 67.4453125 C0.64425781 66.34960938 0.54242187 65.25390625 0.4375 64.125 C0.33308594 63.03445313 0.22867188 61.94390625 0.12109375 60.8203125 C0 58 0 58 1 56 C0.34 55.34 -0.32 54.68 -1 54 C-0.505 53.505 -0.505 53.505 0 53 C-0.33 52.34 -0.66 51.68 -1 51 C-0.5625 48.875 -0.5625 48.875 0 47 C0.99 47 1.98 47 3 47 C2.835 46.443125 2.67 45.88625 2.5 45.3125 C2 43 2 43 2.125 40.5 C2.24117416 37.91042177 2.24117416 37.91042177 0.4375 36.0625 C-1 34 -1 34 -0.8125 31.1875 C-0.24698808 28.96895324 0.36047848 26.76085523 1 24.5625 C1.98879975 21.0399009 2.55583759 17.62732639 3 14 C2.01 13.67 1.02 13.34 0 13 C0 8.71 0 4.42 0 0 Z M-2 35 C-1.34 35 -0.68 35 0 35 C-0.33 35.66 -0.66 36.32 -1 37 C-1.33 36.34 -1.66 35.68 -2 35 Z " fill="#363636" transform="translate(556,420)"/>
<path d="M0 0 C0.81853958 -0.00175232 1.63707916 -0.00350464 2.48042297 -0.00531006 C5.17919044 -0.00970161 7.87789205 -0.00679952 10.57666016 -0.00341797 C12.4584657 -0.00409191 14.34027117 -0.00506269 16.22207642 -0.00631714 C20.16449818 -0.00779057 24.10689728 -0.00565141 28.04931641 -0.00097656 C33.09189351 0.00471266 38.13441728 0.00144458 43.17699242 -0.00454903 C47.06326699 -0.00817089 50.94952903 -0.00700844 54.83580399 -0.00442123 C56.69446443 -0.00375606 58.55312603 -0.00456604 60.41178513 -0.00690079 C63.01543927 -0.00945313 65.6190084 -0.00555009 68.22265625 0 C68.98444687 -0.00202423 69.74623749 -0.00404846 70.53111267 -0.00613403 C75.03338895 0.01155776 79.29749557 0.3928852 83.74072266 1.12939453 C83.74072266 1.78939453 83.74072266 2.44939453 83.74072266 3.12939453 C81.76072266 2.79939453 79.78072266 2.46939453 77.74072266 2.12939453 C77.74072266 3.11939453 77.74072266 4.10939453 77.74072266 5.12939453 C76.93248047 4.97341797 76.12423828 4.81744141 75.29150391 4.65673828 C74.22287109 4.46208984 73.15423828 4.26744141 72.05322266 4.06689453 C70.99748047 3.86966797 69.94173828 3.67244141 68.85400391 3.46923828 C65.78973123 3.13474428 63.70870896 3.42554372 60.74072266 4.12939453 C59.42072266 4.12939453 58.10072266 4.12939453 56.74072266 4.12939453 C55.58572266 4.15001953 54.43072266 4.17064453 53.24072266 4.19189453 C50.45962125 4.14223201 48.35626616 3.96636845 45.74072266 3.12939453 C45.74072266 3.78939453 45.74072266 4.44939453 45.74072266 5.12939453 C45.08072266 5.12939453 44.42072266 5.12939453 43.74072266 5.12939453 C43.74072266 4.46939453 43.74072266 3.80939453 43.74072266 3.12939453 C41.10072266 3.12939453 38.46072266 3.12939453 35.74072266 3.12939453 C35.74072266 2.46939453 35.74072266 1.80939453 35.74072266 1.12939453 C19.57072266 1.45939453 3.40072266 1.78939453 -13.25927734 2.12939453 C-13.25927734 1.79939453 -13.25927734 1.46939453 -13.25927734 1.12939453 C-8.83983036 0.03352397 -4.52379075 -0.01195708 0 0 Z " fill="#4F5050" transform="translate(422.25927734375,257.87060546875)"/>
<path d="M0 0 C0.495 0.99 0.495 0.99 1 2 C0.01 2.66 -0.98 3.32 -2 4 C-2.185625 4.99 -2.185625 4.99 -2.375 6 C-3 8 -3 8 -5.25 9.1875 C-7.82506595 9.94831494 -10.35444307 10.54647595 -13 11 C-13 11.66 -13 12.32 -13 13 C-15.90600261 14.25664978 -17.79604584 15 -21 15 C-21 16.32 -21 17.64 -21 19 C-22.56116819 19.33951619 -24.12401338 19.67132544 -25.6875 20 C-26.55761719 20.185625 -27.42773438 20.37125 -28.32421875 20.5625 C-31 21 -31 21 -33.70703125 20.9375 C-36.20090018 20.74251509 -36.20090018 20.74251509 -38 23 C-42.65870241 24.53604858 -47.64167344 24.44029885 -52.5 24.6875 C-53.45003906 24.74744141 -54.40007813 24.80738281 -55.37890625 24.86914062 C-56.29542969 24.91619141 -57.21195313 24.96324219 -58.15625 25.01171875 C-58.98962891 25.05772217 -59.82300781 25.10372559 -60.68164062 25.15112305 C-63 25 -63 25 -67 23 C-60.73 22.67 -54.46 22.34 -48 22 C-48 21.34 -48 20.68 -48 20 C-47.45698242 19.90501221 -46.91396484 19.81002441 -46.35449219 19.7121582 C-28.52832965 16.53430337 -14.23043056 11.63382248 0 0 Z " fill="#3B3B3B" transform="translate(573,563)"/>
<path d="M0 0 C5.62431073 0.3813092 8.90482403 0.77684978 13 5 C13 5.66 13 6.32 13 7 C13.59683594 7.27457031 14.19367187 7.54914063 14.80859375 7.83203125 C24.90683969 13.21416233 36.0611093 29.42054357 40 40 C39.505 40.99 39.505 40.99 39 42 C38.31164062 40.73542969 38.31164062 40.73542969 37.609375 39.4453125 C36.99578125 38.34960938 36.3821875 37.25390625 35.75 36.125 C35.14671875 35.03445313 34.5434375 33.94390625 33.921875 32.8203125 C32.04774923 30.07007102 31.07934858 29.07640946 28 28 C28 27.34 28 26.68 28 26 C27.01 26 26.02 26 25 26 C24.731875 25.443125 24.46375 24.88625 24.1875 24.3125 C23.5996875 23.1678125 23.5996875 23.1678125 23 22 C22.566875 21.13375 22.13375 20.2675 21.6875 19.375 C19.71157349 16.5940664 18.22052097 15.95745218 15 15 C15 14.34 15 13.68 15 13 C13.02 13 11.04 13 9 13 C9 12.34 9 11.68 9 11 C9.66 11 10.32 11 11 11 C10.96877057 9.03243548 10.96877057 9.03243548 10 7 C8.6078125 6.5359375 8.6078125 6.5359375 7.1875 6.0625 C3.39911698 4.79970566 2.21659535 3.23963936 0 0 Z " fill="#545453" transform="translate(664,281)"/>
<path d="M0 0 C4.02437404 6.70729006 3.0750457 14.88843846 2.87890625 22.40234375 C2.85529526 23.48004532 2.83168427 24.55774689 2.80735779 25.66810608 C2.73112625 29.09138506 2.64692858 32.51441435 2.5625 35.9375 C2.50923873 38.26626405 2.45649864 40.59504008 2.40429688 42.92382812 C2.27556628 48.61603803 2.14030448 54.30806424 2 60 C1.34 60 0.68 60 0 60 C0.33 56.37 0.66 52.74 1 49 C0.34 48.67 -0.32 48.34 -1 48 C-0.34 48 0.32 48 1 48 C0.67 47.236875 0.34 46.47375 0 45.6875 C-1 43 -1 43 -1 40 C-1.495 38.515 -1.495 38.515 -2 37 C-1.87890625 34.73828125 -1.87890625 34.73828125 -1.5625 32.3125 C-1.46066406 31.50425781 -1.35882812 30.69601562 -1.25390625 29.86328125 C-1.17011719 29.24839844 -1.08632813 28.63351562 -1 28 C-0.34 28 0.32 28 1 28 C1 27.34 1 26.68 1 26 C0.34 26 -0.32 26 -1 26 C-1 23.69 -1 21.38 -1 19 C-1.99 18.67 -2.98 18.34 -4 18 C-3.01 18 -2.02 18 -1 18 C-1 17.34 -1 16.68 -1 16 C-1.66 15.67 -2.32 15.34 -3 15 C-2.814375 14.401875 -2.62875 13.80375 -2.4375 13.1875 C-1.77906313 10.83591238 -1.77906313 10.83591238 -3 8 C-2.34 8 -1.68 8 -1 8 C-1.020625 6.865625 -1.04125 5.73125 -1.0625 4.5625 C-1 1 -1 1 0 0 Z " fill="#3D3D3C" transform="translate(716,425)"/>
<path d="M0 0 C1.75662882 2.63494323 2.41863393 4.03998982 3.125 7 C3.29257812 7.680625 3.46015625 8.36125 3.6328125 9.0625 C4 11 4 11 4 14 C4.99 14 5.98 14 7 14 C8.6875 15.375 8.6875 15.375 10 17 C10 17.66 10 18.32 10 19 C8.35 19.33 6.7 19.66 5 20 C5.99 22.31 6.98 24.62 8 27 C7.01 27 6.02 27 5 27 C5.0928125 28.1446875 5.0928125 28.1446875 5.1875 29.3125 C5 32 5 32 3.5 33.8125 C2.7575 34.4003125 2.7575 34.4003125 2 35 C2 34.01 2 33.02 2 32 C1.34 32 0.68 32 0 32 C0.01740234 30.87078125 0.01740234 30.87078125 0.03515625 29.71875 C0.09615983 22.53775678 -0.14863675 15.44854656 -0.73217773 8.29492188 C-0.96749329 5.15320471 -1.00908564 3.02725693 0 0 Z " fill="#262627" transform="translate(610,426)"/>
<path d="M0 0 C3.15099549 2.85787963 4.77644972 6.10855716 6.71875 9.84375 C7.85600203 11.99553583 7.85600203 11.99553583 9.4296875 13.3046875 C11.9217262 15.99509744 13.18251993 19.29778623 14.625 22.625 C14.93767822 23.33978516 15.25035645 24.05457031 15.57250977 24.79101562 C17.73208852 29.91500673 18.89995877 34.39769131 19 40 C18.34 40 17.68 40 17 40 C16.67 38.02 16.34 36.04 16 34 C15.34 34 14.68 34 14 34 C13.49384702 32.73160474 12.99530901 31.46016898 12.5 30.1875 C12.2215625 29.47980469 11.943125 28.77210938 11.65625 28.04296875 C11 26 11 26 11 23 C10.01 22.34 9.02 21.68 8 21 C6.57850516 18.0821948 6 16.26795703 6 13 C5.34 13 4.68 13 4 13 C1.96564469 9.27034861 1 7.33094958 1 3 C0.34 3 -0.32 3 -1 3 C-0.67 2.01 -0.34 1.02 0 0 Z " fill="#4A4B4A" transform="translate(695,310)"/>
<path d="M0 0 C5.23271569 -0.07403712 10.46512801 -0.12854783 15.69824219 -0.16479492 C17.47922067 -0.17990173 19.26016184 -0.20038835 21.04101562 -0.22631836 C23.59774978 -0.26261943 26.1539931 -0.27970688 28.7109375 -0.29296875 C29.50994476 -0.30845261 30.30895203 -0.32393646 31.13217163 -0.33988953 C33.37646484 -0.34057617 33.37646484 -0.34057617 37 0 C37.66 0.99 38.32 1.98 39 3 C36.19625421 4.40187289 34.10474015 3.90114275 31 3.625 C29.39125 3.48964844 29.39125 3.48964844 27.75 3.3515625 C25 3 25 3 23 2 C22.67 2.66 22.34 3.32 22 4 C19.03 3.505 19.03 3.505 16 3 C16 2.34 16 1.68 16 1 C15.01 1.66 14.02 2.32 13 3 C9.86328125 3.1953125 9.86328125 3.1953125 6.3125 3.125 C5.13300781 3.10695313 3.95351563 3.08890625 2.73828125 3.0703125 C1.83464844 3.04710937 0.93101562 3.02390625 0 3 C-0.66 4.32 -1.32 5.64 -2 7 C-2.99 6.67 -3.98 6.34 -5 6 C-5.33 4.35 -5.66 2.7 -6 1 C-3.03 1.495 -3.03 1.495 0 2 C0 1.34 0 0.68 0 0 Z " fill="#404040" transform="translate(506,259)"/>
<path d="M0 0 C2.37378219 2.88865889 3.65733224 5.45537565 4.8125 9 C7.93263829 17.88586912 11.87450244 25.81154637 17.73828125 33.18359375 C19.71906138 36.03518125 20.38701561 38.59453119 21 42 C20.67 42.66 20.34 43.32 20 44 C18.84448547 42.27728773 17.70095881 40.54653083 16.5625 38.8125 C15.92441406 37.84957031 15.28632813 36.88664063 14.62890625 35.89453125 C13.08453813 33.15022243 12.40183359 31.09581657 12 28 C11.34 28 10.68 28 10 28 C9.67 26.68 9.34 25.36 9 24 C7.68 24 6.36 24 5 24 C4.71125 22.7625 4.4225 21.525 4.125 20.25 C3.38441916 17.2506476 2.42358162 14.74547884 1 12 C1 11.01 1 10.02 1 9 C0.34 8.67 -0.32 8.34 -1 8 C-0.67 5.36 -0.34 2.72 0 0 Z " fill="#474746" transform="translate(424,516)"/>
<path d="M0 0 C3.02097626 0.69511527 5.86820086 0.62491846 8.96679688 0.61132812 C10.91005859 0.60649414 10.91005859 0.60649414 12.89257812 0.6015625 C14.25586005 0.59320785 15.6191413 0.58474292 16.98242188 0.57617188 C18.36132652 0.57115356 19.74023291 0.56659123 21.11914062 0.5625 C24.49027846 0.5507128 27.86132815 0.53425822 31.23242188 0.51367188 C31.72742188 1.50367188 31.72742188 1.50367188 32.23242188 2.51367188 C25.26259731 3.84125751 18.30381945 3.59362486 11.23242188 3.51367188 C10.24242187 3.51367188 9.25242187 3.51367188 8.23242188 3.51367188 C5.55886031 3.22740142 2.89876612 2.86335637 0.23242188 2.51367188 C0.23242188 3.17367188 0.23242188 3.83367187 0.23242188 4.51367188 C-0.65445313 4.30742187 -1.54132812 4.10117187 -2.45507812 3.88867188 C-5.99284922 3.48816949 -7.6339078 3.94683671 -10.76757812 5.51367188 C-10.76757812 4.85367187 -10.76757812 4.19367188 -10.76757812 3.51367188 C-11.75757813 3.51367188 -12.74757813 3.51367188 -13.76757812 3.51367188 C-13.76757812 4.17367188 -13.76757812 4.83367187 -13.76757812 5.51367188 C-14.75757813 5.18367188 -15.74757813 4.85367187 -16.76757812 4.51367188 C-16.10757813 4.18367188 -15.44757812 3.85367187 -14.76757812 3.51367188 C-14.43757812 2.52367187 -14.10757813 1.53367187 -13.76757812 0.51367188 C-11.85174166 0.31787098 -9.93485274 0.13234974 -8.01757812 -0.04882812 C-6.4165625 -0.20544922 -6.4165625 -0.20544922 -4.78320312 -0.36523438 C-1.76757812 -0.48632812 -1.76757812 -0.48632812 0 0 Z " fill="#404040" transform="translate(580.767578125,258.486328125)"/>
<path d="M0 0 C0.66 0.33 1.32 0.66 2 1 C1.5875 1.391875 1.175 1.78375 0.75 2.1875 C-5.64505536 8.8109502 -9.26310839 16.69845184 -13 25 C-13.4021875 25.89332031 -13.804375 26.78664063 -14.21875 27.70703125 C-19.75781869 41.53236801 -22.31481191 57.26089227 -24 72 C-24.33 72 -24.66 72 -25 72 C-26.78286323 49.96182954 -17.29651001 20.34198062 -4 3 C-1.78515625 1.19140625 -1.78515625 1.19140625 0 0 Z " fill="#040404" transform="translate(445,349)"/>
<path d="M0 0 C-0.90878906 0.38478516 -0.90878906 0.38478516 -1.8359375 0.77734375 C-15.75503635 7.13730122 -22.24041528 16.35301494 -28 30 C-28.35964844 30.84949219 -28.71929687 31.69898438 -29.08984375 32.57421875 C-31.40726394 38.8116532 -32.13723423 45.43282994 -33 52 C-34.485 52.495 -34.485 52.495 -36 53 C-34.0780331 35.98915867 -28.96878834 18.46749207 -15.92578125 6.50390625 C-5.08342023 -1.96325195 -5.08342023 -1.96325195 0 0 Z " fill="#040404" transform="translate(503,361)"/>
<path d="M0 0 C0.66 0 1.32 0 2 0 C2.19491452 1.45736087 2.38069358 2.91594593 2.5625 4.375 C2.66691406 5.18710937 2.77132813 5.99921875 2.87890625 6.8359375 C3 9 3 9 2 11 C2.4565779 13.92209857 2.85279101 14.85279101 5 17 C4.34 17 3.68 17 3 17 C3.59026226 21.63797755 3.59026226 21.63797755 4.625 26.1875 C5 28 5 28 4.4375 30.125 C4.293125 30.74375 4.14875 31.3625 4 32 C4.66 32.66 5.32 33.32 6 34 C6.37890625 35.91796875 6.37890625 35.91796875 6.5625 38.1875 C6.8217226 41.16375945 7.17164863 43.98307852 7.6875 46.9375 C7.790625 47.948125 7.89375 48.95875 8 50 C7.34 50.66 6.68 51.32 6 52 C5.87625 50.9275 5.7525 49.855 5.625 48.75 C5.23039572 45.20890681 5.23039572 45.20890681 4.01416016 43.08081055 C2.01961241 38.98848256 1.91584869 34.28858452 1.375 29.8125 C1.24311279 28.74708984 1.11122559 27.68167969 0.9753418 26.58398438 C-0.05828229 17.68426053 -0.32815742 8.94532811 0 0 Z " fill="#1E1D1D" transform="translate(467,455)"/>
<path d="M0 0 C0.66 0.33 1.32 0.66 2 1 C1.56768066 1.40613525 1.13536133 1.81227051 0.68994141 2.23071289 C-8.98585741 11.39894988 -17.3053569 20.44857713 -24 32 C-24.37092773 32.63325195 -24.74185547 33.26650391 -25.12402344 33.91894531 C-29.77393697 41.95578277 -33.46122376 50.03077078 -36 59 C-36.66 58.67 -37.32 58.34 -38 58 C-32.6161891 34.67015278 -16.66197455 16.30746446 0 0 Z " fill="#030303" transform="translate(348,284)"/>
<path d="M0 0 C1.4540625 1.2375 1.4540625 1.2375 2.9375 2.5 C3.58332031 3.04914062 4.22914063 3.59828125 4.89453125 4.1640625 C6.29101186 5.38177286 7.6641796 6.62677919 9.01171875 7.8984375 C16.7345064 15.12159933 25.51643193 20.37907103 35 25 C34.67 25.66 34.34 26.32 34 27 C24.76923077 24.46606335 24.76923077 24.46606335 22 23 C21.87882812 22.34644531 21.75765625 21.69289063 21.6328125 21.01953125 C21.42398437 20.35308594 21.21515625 19.68664062 21 19 C19.07944033 18.04066699 19.07944033 18.04066699 16.75 17.5625 C11.44453109 16.01050274 8.4461334 13.54794932 5.6875 8.6875 C5.3471875 7.8521875 5.3471875 7.8521875 5 7 C4.01 7 3.02 7 2 7 C1.34 4.69 0.68 2.38 0 0 Z " fill="#4E4E4D" transform="translate(443,553)"/>
<path d="M0 0 C0.33 0 0.66 0 1 0 C1.02482718 5.28360659 1.04292007 10.56717878 1.05493164 15.85083008 C1.05994225 17.6460835 1.06675255 19.44133287 1.07543945 21.23657227 C1.0876489 23.82569378 1.09326116 26.41476107 1.09765625 29.00390625 C1.10281754 29.79898087 1.10797882 30.59405548 1.11329651 31.41322327 C1.11375707 36.04898956 0.76884311 40.4268467 0 45 C-1.485 45.495 -1.485 45.495 -3 46 C-3 45.34 -3 44.68 -3 44 C-4.32 43.67 -5.64 43.34 -7 43 C-6.01 43 -5.02 43 -4 43 C-4.495 41.515 -4.495 41.515 -5 40 C-4.72428861 37.99124558 -4.39764263 35.98821313 -4 34 C-3.01 34 -2.02 34 -1 34 C-0.67 30.7 -0.34 27.4 0 24 C-0.99 24 -1.98 24 -3 24 C-2.67 23.34 -2.34 22.68 -2 22 C-1.34 22.33 -0.68 22.66 0 23 C0 22.34 0 21.68 0 21 C-0.99 21 -1.98 21 -3 21 C-3 20.34 -3 19.68 -3 19 C-2.01 19 -1.02 19 0 19 C0 18.34 0 17.68 0 17 C-0.66 17 -1.32 17 -2 17 C-2 16.34 -2 15.68 -2 15 C-1.34 15 -0.68 15 0 15 C0 13.68 0 12.36 0 11 C-0.66 10.67 -1.32 10.34 -2 10 C-1.34 10 -0.68 10 0 10 C0 6.7 0 3.4 0 0 Z " fill="#363736" transform="translate(717,493)"/>
<path d="M0 0 C0.33 0 0.66 0 1 0 C0.50137473 6.94563931 -1.02254256 12.72095739 -3.5625 19.1875 C-3.91747559 20.10225098 -4.27245117 21.01700195 -4.63818359 21.95947266 C-8.89964407 32.64786913 -13.99727169 42.59713527 -22 51 C-22 46.96366926 -20.00731285 44.71471212 -17.8125 41.5 C-10.99331134 31.19601027 -6.20080675 20.03602884 -2.875 8.125 C-2.08749298 5.31247491 -1.13946615 2.68588449 0 0 Z " fill="#030303" transform="translate(603,504)"/>
<path d="M0 0 C10.78561142 -0.73122789 20.71461868 1.96319024 28.99609375 9.0703125 C38.32857143 18.05714286 38.32857143 18.05714286 40 24 C38.0625 23.1875 38.0625 23.1875 36 22 C35.505 20.515 35.505 20.515 35 19 C34.34 18.67 33.68 18.34 33 18 C32.4121875 16.88625 32.4121875 16.88625 31.8125 15.75 C27.39214237 9.04325049 20.94155817 7.05237163 13.57421875 4.796875 C11 4 11 4 9 3 C7.29636178 2.77377919 5.58671299 2.59111527 3.875 2.4375 C2.96492188 2.35371094 2.05484375 2.26992188 1.1171875 2.18359375 C0.41851562 2.12300781 -0.28015625 2.06242187 -1 2 C-0.67 1.34 -0.34 0.68 0 0 Z " fill="#515151" transform="translate(509,359)"/>
<path d="M0 0 C0.33 0 0.66 0 1 0 C1.02903577 3.10414702 1.0468107 6.20825909 1.0625 9.3125 C1.07087891 10.19357422 1.07925781 11.07464844 1.08789062 11.98242188 C1.09111328 12.82998047 1.09433594 13.67753906 1.09765625 14.55078125 C1.10289307 15.33106689 1.10812988 16.11135254 1.11352539 16.9152832 C1 19 1 19 0 22 C-0.03954234 24.33299825 -0.04401732 26.66708189 0 29 C-0.66 29 -1.32 29 -2 29 C-2 29.99 -2 30.98 -2 32 C-1.34 32.33 -0.68 32.66 0 33 C0 35.97 0 38.94 0 42 C-0.99 41.67 -1.98 41.34 -3 41 C-2.67 40.01 -2.34 39.02 -2 38 C-2.66 38 -3.32 38 -4 38 C-4 34.33333333 -4 30.66666667 -4 27 C-3.01 27 -2.02 27 -1 27 C-1.33 26.34 -1.66 25.68 -2 25 C-2.22075843 19.59141851 -1.67978326 14.3532932 -1 9 C-1.66 9 -2.32 9 -3 9 C-3 8.34 -3 7.68 -3 7 C-2.34 7 -1.68 7 -1 7 C-1.33 5.35 -1.66 3.7 -2 2 C-1.34 2 -0.68 2 0 2 C0 1.34 0 0.68 0 0 Z " fill="#383838" transform="translate(417,430)"/>
<path d="M0 0 C0.33 0 0.66 0 1 0 C0.47662174 8.35178073 -0.07999551 16.6808105 -1 25 C-1.66 25 -2.32 25 -3 25 C-3.66 25.66 -4.32 26.32 -5 27 C-5.66 25.68 -6.32 24.36 -7 23 C-6.34 22.34 -5.68 21.68 -5 21 C-5.33 20.34 -5.66 19.68 -6 19 C-5.29296875 16.93359375 -5.29296875 16.93359375 -4.1875 14.4375 C-2.17636195 9.65669778 -0.98440838 5.08610994 0 0 Z " fill="#353535" transform="translate(420,403)"/>
<path d="M0 0 C0.52980469 0.47824219 1.05960938 0.95648438 1.60546875 1.44921875 C-5.39453125 1.44921875 -12.39453125 1.44921875 -19.39453125 1.44921875 C-19.72453125 2.43921875 -20.05453125 3.42921875 -20.39453125 4.44921875 C-22.70453125 4.11921875 -25.01453125 3.78921875 -27.39453125 3.44921875 C-20.36367784 -2.94246616 -8.45980188 -5.47886027 0 0 Z " fill="#3B3B3B" transform="translate(520.39453125,362.55078125)"/>
<path d="M0 0 C0.928125 0.2784375 0.928125 0.2784375 1.875 0.5625 C4.04160178 1.23686176 4.04160178 1.23686176 6 0 C7.89213403 0.40626902 9.76666849 0.89728735 11.625 1.4375 C12.62789063 1.72496094 13.63078125 2.01242187 14.6640625 2.30859375 C15.43492187 2.53675781 16.20578125 2.76492188 17 3 C16.67 3.99 16.34 4.98 16 6 C17.32 6 18.64 6 20 6 C19.67 6.99 19.34 7.98 19 9 C18.113125 8.690625 17.22625 8.38125 16.3125 8.0625 C13.52387616 7.16803575 10.87190569 6.52903526 8 6 C6.66457061 5.67516582 5.33038449 5.3449145 4 5 C4 4.34 4 3.68 4 3 C2.35 2.67 0.7 2.34 -1 2 C-0.67 1.34 -0.34 0.68 0 0 Z " fill="#424141" transform="translate(473,578)"/>
<path d="M0 0 C5.17566074 4.80375698 9.11324261 11.04513723 9.875 18.125 C9.91625 19.40375 9.9575 20.6825 10 22 C7.18167487 20.59083743 6.97406539 18.92219617 6 16 C6 15.01 6 14.02 6 13 C5.34 13 4.68 13 4 13 C1.96564469 9.27034861 1 7.33094958 1 3 C0.34 3 -0.32 3 -1 3 C-0.67 2.01 -0.34 1.02 0 0 Z " fill="#3E3E3E" transform="translate(695,310)"/>
<path d="M0 0 C-1.125 2 -1.125 2 -3 4 C-6 4.1875 -6 4.1875 -9 4 C-12.11785113 4.64644661 -12.11785113 4.64644661 -13 7 C-13.99 7.33 -14.98 7.66 -16 8 C-14.43537634 3.77551612 -11.58245016 1.59903247 -8 -1 C-4.08190071 -2.36677882 -3.56174543 -2.37449695 0 0 Z " fill="#303030" transform="translate(500,367)"/>
<path d="M0 0 C1.55334949 0.02511675 3.10673813 0.04792397 4.66015625 0.06835938 C8.44108146 0.12308411 12.22010379 0.20916334 16 0.3125 C16 0.6425 16 0.9725 16 1.3125 C15.18845459 1.33231934 14.37690918 1.35213867 13.54077148 1.37255859 C9.83937251 1.46821837 6.13850635 1.57773214 2.4375 1.6875 C1.16068359 1.7184375 -0.11613281 1.749375 -1.43164062 1.78125 C-13.02407737 2.00764479 -13.02407737 2.00764479 -23 7.3125 C-23.66 7.3125 -24.32 7.3125 -25 7.3125 C-25 6.6525 -25 5.9925 -25 5.3125 C-17.59298374 -1.25728703 -9.30595469 -0.26206992 0 0 Z " fill="#10100F" transform="translate(462,640.6875)"/>
<path d="M0 0 C0.33 0 0.66 0 1 0 C1.82622671 5.60563042 2.06795656 10.42289352 1 16 C-0.32 15.67 -1.64 15.34 -3 15 C-3.33 12.69 -3.66 10.38 -4 8 C-3.34 8 -2.68 8 -2 8 C-1.855625 6.865625 -1.71125 5.73125 -1.5625 4.5625 C-1 1 -1 1 0 0 Z " fill="#343434" transform="translate(716,384)"/>
<path d="M0 0 C0.99 0 1.98 0 3 0 C4.25433458 3.76300374 4.10695422 7.27210909 4.0625 11.1875 C4.05798828 11.93708984 4.05347656 12.68667969 4.04882812 13.45898438 C4.03706354 15.30602383 4.01912865 17.15302213 4 19 C3.67 19 3.34 19 3 19 C3 17.35 3 15.7 3 14 C2.01 13.67 1.02 13.34 0 13 C0 8.71 0 4.42 0 0 Z " fill="#3E3E3D" transform="translate(556,420)"/>
<path d="M0 0 C4.07690223 0.52835511 6.25617734 1.64675717 9.3125 4.375 C10.00988281 4.98085938 10.70726562 5.58671875 11.42578125 6.2109375 C13 8 13 8 13 11 C13.99 11.33 14.98 11.66 16 12 C16 13.65 16 15.3 16 17 C14.5 15.625 14.5 15.625 13 14 C13 13.34 13 12.68 13 12 C12.34 12 11.68 12 11 12 C10.62875 11.29875 10.2575 10.5975 9.875 9.875 C7.61194614 6.40498407 5.00648605 4.58471457 1.64453125 2.234375 C1.10183594 1.82703125 0.55914063 1.4196875 0 1 C0 0.67 0 0.34 0 0 Z " fill="#3C3C3C" transform="translate(529,366)"/>
<path d="M0 0 C3.08813817 0.03070592 6.16326365 -0.06740576 9.25 -0.16015625 C12 0 12 0 14 2 C9.74433453 3.16063604 6.3164922 2.76173392 2 2 C2 2.66 2 3.32 2 4 C1.34 4 0.68 4 0 4 C0 3.34 0 2.68 0 2 C-2.64 2 -5.28 2 -8 2 C-8 1.34 -8 0.68 -8 0 C-2.25 -1.125 -2.25 -1.125 0 0 Z " fill="#3F403F" transform="translate(466,259)"/>
<path d="M0 0 C0.66 0 1.32 0 2 0 C2 0.66 2 1.32 2 2 C1.34 2 0.68 2 0 2 C0 2.66 0 3.32 0 4 C0.66 4.33 1.32 4.66 2 5 C1.67 7.31 1.34 9.62 1 12 C0.34 12 -0.32 12 -1 12 C-0.67 14.64 -0.34 17.28 0 20 C-0.66 20.33 -1.32 20.66 -2 21 C-3.90533782 14.38466707 -3.76145524 7.3351032 -1 1 C-0.67 0.67 -0.34 0.34 0 0 Z " fill="#1B1B1B" transform="translate(360,650)"/>
<path d="M0 0 C-3 2 -3 2 -6 2 C-6 2.66 -6 3.32 -6 4 C-12.11980533 5.40454548 -17.71739294 6.23268915 -24 6 C-23.67 5.01 -23.34 4.02 -23 3 C-22.1646875 3.05220703 -22.1646875 3.05220703 -21.3125 3.10546875 C-16.20537901 3.28663351 -12.54763491 2.66750248 -7.86328125 0.66796875 C-5.2148424 -0.28147159 -2.77789975 -0.20834248 0 0 Z " fill="#1D1D1D" transform="translate(637,634)"/>
<path d="M0 0 C2 2 2 2 2 6 C2.66 6 3.32 6 4 6 C4.33 5.34 4.66 4.68 5 4 C5 7.63 5 11.26 5 15 C4.34 15 3.68 15 3 15 C3.33 16.65 3.66 18.3 4 20 C1.4530889 17.4530889 1.56883195 15.42893863 1.21875 11.953125 C1.04304129 9.95256198 1.04304129 9.95256198 0.4375 7.875 C-0.17735477 5.23990812 -0.0612215 2.69374583 0 0 Z " fill="#383838" transform="translate(710,344)"/>
<path d="M0 0 C0.66 0 1.32 0 2 0 C1.67 1.32 1.34 2.64 1 4 C1.66 4 2.32 4 3 4 C3.33 6.97 3.66 9.94 4 13 C2.68 13.33 1.36 13.66 0 14 C-0.19393875 11.85473901 -0.37998676 9.70876323 -0.5625 7.5625 C-0.71912109 5.77005859 -0.71912109 5.77005859 -0.87890625 3.94140625 C-0.91886719 2.97074219 -0.95882813 2.00007813 -1 1 C-0.67 0.67 -0.34 0.34 0 0 Z " fill="#333232" transform="translate(416,486)"/>
<path d="M0 0 C2.55698285 3.78667689 2.03499684 7.4122334 1.625 11.75 C1.56828125 12.44738281 1.5115625 13.14476562 1.453125 13.86328125 C1.31232128 15.57639312 1.15754028 17.28834611 1 19 C0.34 18.67 -0.32 18.34 -1 18 C-1 17.34 -1 16.68 -1 16 C-1.66 15.67 -2.32 15.34 -3 15 C-2.7215625 14.1028125 -2.7215625 14.1028125 -2.4375 13.1875 C-1.77906313 10.83591238 -1.77906313 10.83591238 -3 8 C-2.34 8 -1.68 8 -1 8 C-1.020625 6.865625 -1.04125 5.73125 -1.0625 4.5625 C-1 1 -1 1 0 0 Z " fill="#353535" transform="translate(716,425)"/>
<path d="M0 0 C2.38457499 3.57686249 3.48451744 6.73921448 4 11 C3.20003674 14.59983468 2.60233337 16.39766663 0 19 C-0.19476139 16.39619004 -0.38108614 13.79224467 -0.5625 11.1875 C-0.61857422 10.44951172 -0.67464844 9.71152344 -0.73242188 8.95117188 C-0.95769724 5.63211484 -1.06255812 3.18767436 0 0 Z " fill="#1D1D1D" transform="translate(610,426)"/>
<path d="M0 0 C2.31 0 4.62 0 7 0 C6.67 0.99 6.34 1.98 6 3 C6.66 3.33 7.32 3.66 8 4 C7.34 5.32 6.68 6.64 6 8 C4.68 7.67 3.36 7.34 2 7 C2.33 7.99 2.66 8.98 3 10 C1.68 9.34 0.36 8.68 -1 8 C-1 7.34 -1 6.68 -1 6 C0.32 5.67 1.64 5.34 3 5 C2.01 3.35 1.02 1.7 0 0 Z " fill="#1E1E1E" transform="translate(408,0)"/>
<path d="M0 0 C0.99 0 1.98 0 3 0 C3 0.66 3 1.32 3 2 C4.3303125 1.9071875 4.3303125 1.9071875 5.6875 1.8125 C9.41260904 2.02335523 11.10437976 2.68350381 14 5 C14.8125 7.1875 14.8125 7.1875 15 9 C11.33420402 8.41503256 8.49500856 7.42173293 5.25 5.625 C4.47140625 5.20476562 3.6928125 4.78453125 2.890625 4.3515625 C1 3 1 3 0 0 Z " fill="#3A3A3A" transform="translate(646,271)"/>
<path d="M0 0 C0.99 0 1.98 0 3 0 C3 0.66 3 1.32 3 2 C3.99 2 4.98 2 6 2 C6 1.34 6 0.68 6 0 C6.66 0 7.32 0 8 0 C8 0.99 8 1.98 8 3 C6.8553125 3.6496875 6.8553125 3.6496875 5.6875 4.3125 C2.35164023 6.40710962 1.64331881 8.48927346 0 12 C-0.99 12.66 -1.98 13.32 -3 14 C-2.05066101 10.64566891 -1.10251165 7.30753495 0 4 C0.66 4 1.32 4 2 4 C1.34 2.68 0.68 1.36 0 0 Z " fill="#222222" transform="translate(445,336)"/>
<path d="M0 0 C4.62644904 -0.04950925 9.25274318 -0.08577116 13.87939453 -0.10986328 C15.45266405 -0.11990887 17.02591496 -0.13354781 18.59912109 -0.15087891 C20.86300252 -0.17519096 23.12663666 -0.18649747 25.390625 -0.1953125 C26.09181458 -0.20563507 26.79300415 -0.21595764 27.51544189 -0.22659302 C31.18563476 -0.22743257 33.88089213 -0.02112595 37 2 C35.34385343 2.38218767 33.67542976 2.71395102 32 3 C31.67 2.67 31.34 2.34 31 2 C28.78144736 1.91216458 26.56011504 1.89305391 24.33984375 1.90234375 C23.67537735 1.9037587 23.01091095 1.90517365 22.3263092 1.90663147 C20.19666101 1.91224482 18.06711661 1.92479946 15.9375 1.9375 C14.49674631 1.94251329 13.05599097 1.94707649 11.61523438 1.95117188 C8.07678898 1.96221855 4.53840461 1.97949208 1 2 C0.67 1.34 0.34 0.68 0 0 Z " fill="#5C5C5C" transform="translate(581,258)"/>
<path d="M0 0 C1.98 0.99 3.96 1.98 6 3 C5.34 5.31 4.68 7.62 4 10 C3.34 10 2.68 10 2 10 C0.61061923 8.03852126 -0.7260411 6.03833424 -2 4 C-1.34 2.68 -0.68 1.36 0 0 Z " fill="#1F1F1F" transform="translate(919,19)"/>
<path d="M0 0 C6.06892629 -0.25287193 11.16200408 0.30167391 17 2 C17 2.99 17 3.98 17 5 C11.25 4.125 11.25 4.125 9 3 C7.29636178 2.77377919 5.58671299 2.59111527 3.875 2.4375 C2.96492188 2.35371094 2.05484375 2.26992188 1.1171875 2.18359375 C0.41851562 2.12300781 -0.28015625 2.06242187 -1 2 C-0.67 1.34 -0.34 0.68 0 0 Z " fill="#494949" transform="translate(509,359)"/>
<path d="M0 0 C1.98 0.66 3.96 1.32 6 2 C6 2.33 6 2.66 6 3 C4.02 3 2.04 3 0 3 C-0.66 4.32 -1.32 5.64 -2 7 C-2.99 6.67 -3.98 6.34 -5 6 C-5.33 4.35 -5.66 2.7 -6 1 C-3.03 1.495 -3.03 1.495 0 2 C0 1.34 0 0.68 0 0 Z " fill="#363635" transform="translate(506,259)"/>
<path d="M0 0 C0.33 0 0.66 0 1 0 C1 9.57 1 19.14 1 29 C-1 27 -1 27 -1.16015625 24.1015625 C-1.12792969 22.95429688 -1.09570312 21.80703125 -1.0625 20.625 C-0.91217821 15.23504003 -0.91217821 15.23504003 -2 10 C-1.34 10 -0.68 10 0 10 C-0.185625 8.72125 -0.37125 7.4425 -0.5625 6.125 C-1.125 2.25 -1.125 2.25 0 0 Z " fill="#444444" transform="translate(417,449)"/>
<path d="M0 0 C0.66 0 1.32 0 2 0 C2.94270829 3.41731755 3.20883873 6.04862358 2.4375 9.5625 C1.74957739 11.99764861 1.74957739 11.99764861 3 14 C2.0625 16.125 2.0625 16.125 1 18 C0.67 18 0.34 18 0 18 C-0.19430855 15.3753399 -0.38073238 12.75053235 -0.5625 10.125 C-0.61857422 9.37863281 -0.67464844 8.63226563 -0.73242188 7.86328125 C-1.11328125 2.2265625 -1.11328125 2.2265625 0 0 Z " fill="#1E1E1E" transform="translate(307,422)"/>
<path d="M0 0 C0.66 0.33 1.32 0.66 2 1 C3.02273507 4.62138266 3.10762232 8.06734756 3.0625 11.8125 C3.05347656 12.78832031 3.04445313 13.76414062 3.03515625 14.76953125 C3.02355469 15.50558594 3.01195312 16.24164063 3 17 C-0.93846154 13.67692308 -0.93846154 13.67692308 -1.25 10.25 C-1.1675 9.5075 -1.085 8.765 -1 8 C-0.34 8 0.32 8 1 8 C0.67 5.36 0.34 2.72 0 0 Z " fill="#444444" transform="translate(714,351)"/>
<path d="M0 0 C5.40431223 4.58547704 8.97262981 10.63500118 12 17 C11.67 17.66 11.34 18.32 11 19 C10.54109375 18.15695312 10.0821875 17.31390625 9.609375 16.4453125 C8.99578125 15.34960938 8.3821875 14.25390625 7.75 13.125 C7.14671875 12.03445313 6.5434375 10.94390625 5.921875 9.8203125 C4.04774923 7.07007102 3.07934858 6.07640946 0 5 C0 3.35 0 1.7 0 0 Z " fill="#535353" transform="translate(692,304)"/>
<path d="M0 0 C0.66 0 1.32 0 2 0 C2.33 1.32 2.66 2.64 3 4 C3.66 4 4.32 4 5 4 C5 4.99 5 5.98 5 7 C5.66 7.33 6.32 7.66 7 8 C7.33 8.66 7.66 9.32 8 10 C7.34 10.66 6.68 11.32 6 12 C6 11.34 6 10.68 6 10 C5.38125 9.731875 4.7625 9.46375 4.125 9.1875 C2 8 2 8 0 5 C-0.125 2.3125 -0.125 2.3125 0 0 Z " fill="#353636" transform="translate(431,540)"/>
<path d="M0 0 C-2.75537052 2.75537052 -5.6046583 2.69377341 -9.3125 3.125 C-9.97701172 3.21136719 -10.64152344 3.29773438 -11.32617188 3.38671875 C-14.90343219 3.83254941 -18.39583495 4.09759828 -22 4 C-19.27576321 1.27576321 -16.34003562 1.01933006 -12.6875 0.3125 C-12.02298828 0.17005859 -11.35847656 0.02761719 -10.67382812 -0.11914062 C-6.81779997 -0.88576937 -3.79164519 -1.09275654 0 0 Z " fill="#1A1A1A" transform="translate(509,315)"/>
<path d="M0 0 C4.28806873 0.47645208 6.26647487 1.65902484 9 5 C9 5.66 9 6.32 9 7 C7.35 6.67 5.7 6.34 4 6 C4 5.34 4 4.68 4 4 C2.02 4 0.04 4 -2 4 C-2 3.34 -2 2.68 -2 2 C-1.34 2 -0.68 2 0 2 C0 1.34 0 0.68 0 0 Z " fill="#3F3F3F" transform="translate(675,290)"/>
<path d="M0 0 C0.99 0.33 1.98 0.66 3 1 C3.05429959 2.74965358 3.09292823 4.49979787 3.125 6.25 C3.14820313 7.22453125 3.17140625 8.1990625 3.1953125 9.203125 C2.99862781 12.0196498 2.44568916 13.60949036 1 16 C0.67 16 0.34 16 0 16 C-0.82622671 10.39436958 -1.06795656 5.57710648 0 0 Z " fill="#1E1E1E" transform="translate(307,453)"/>
<path d="M0 0 C0.33 1.32 0.66 2.64 1 4 C1.66 4 2.32 4 3 4 C3.12375 5.216875 3.2475 6.43375 3.375 7.6875 C3.78891306 11.06479059 4.54573451 13.89756695 6 17 C5.01 17 4.02 17 3 17 C-0.44419134 5.47835991 -0.44419134 5.47835991 0 0 Z " fill="#1B1B1B" transform="translate(604,389)"/>
<path d="M0 0 C1.32 0.33 2.64 0.66 4 1 C0.7 4.3 -2.6 7.6 -6 11 C-6.33 10.34 -6.66 9.68 -7 9 C-6.0625 6.375 -6.0625 6.375 -5 4 C-4.01 4 -3.02 4 -2 4 C-2 3.34 -2 2.68 -2 2 C-1.34 2 -0.68 2 0 2 C0 1.34 0 0.68 0 0 Z " fill="#1C1C1C" transform="translate(684,601)"/>
<path d="M0 0 C0.99 0.495 0.99 0.495 2 1 C1.98839844 1.67546875 1.97679687 2.3509375 1.96484375 3.046875 C1.95582031 3.93890625 1.94679688 4.8309375 1.9375 5.75 C1.92589844 6.63171875 1.91429687 7.5134375 1.90234375 8.421875 C1.99173802 10.7818838 2.33087179 12.74498524 3 15 C2.01 15.66 1.02 16.32 0 17 C0 11.39 0 5.78 0 0 Z " fill="#1E1E1E" transform="translate(307,491)"/>
<path d="M0 0 C0.66 0.33 1.32 0.66 2 1 C1.01 1.66 0.02 2.32 -1 3 C-1 4.32 -1 5.64 -1 7 C-3.31 7 -5.62 7 -8 7 C-6.88424427 3.65273281 -6.48655378 3.37920252 -3.5625 1.75 C-2.386875 1.1725 -1.21125 0.595 0 0 Z " fill="#3C3C3C" transform="translate(370,271)"/>
<path d="M0 0 C0 0.99 0 1.98 0 3 C-4.29 2.67 -8.58 2.34 -13 2 C-7.92858749 -0.53570625 -5.51630428 -1.37907607 0 0 Z " fill="#3A3A3A" transform="translate(544,260)"/>
<path d="M0 0 C1.98 0 3.96 0 6 0 C2.19791273 3.30616284 -3.83581485 7 -9 7 C-9 6.34 -9 5.68 -9 5 C-6.09399739 3.74335022 -4.20395416 3 -1 3 C-0.67 2.01 -0.34 1.02 0 0 Z " fill="#101010" transform="translate(650,628)"/>
<path d="M0 0 C2.475 0.495 2.475 0.495 5 1 C5.0825 1.61875 5.165 2.2375 5.25 2.875 C5.81258459 5.18437567 5.81258459 5.18437567 8.0625 6.25 C8.701875 6.4975 9.34125 6.745 10 7 C10 7.99 10 8.98 10 10 C8.70450101 8.90033225 7.41373929 7.79508199 6.125 6.6875 C5.40570313 6.07261719 4.68640625 5.45773437 3.9453125 4.82421875 C2 3 2 3 0 0 Z " fill="#101010" transform="translate(339,606)"/>
<path d="M0 0 C0.66 0 1.32 0 2 0 C4.21538462 6.4 4.21538462 6.4 3.125 9.4375 C2.75375 9.953125 2.3825 10.46875 2 11 C1.34 11 0.68 11 0 11 C0 7.37 0 3.74 0 0 Z " fill="#1E1E1E" transform="translate(610,447)"/>
<path d="M0 0 C0.33 0 0.66 0 1 0 C1 6.6 1 13.2 1 20 C0.67 20 0.34 20 0 20 C0 16.7 0 13.4 0 10 C-0.66 10 -1.32 10 -2 10 C-2 9.01 -2 8.02 -2 7 C-1.34 7 -0.68 7 0 7 C0 4.69 0 2.38 0 0 Z " fill="#424241" transform="translate(717,393)"/>
<path d="M0 0 C0.66 0.33 1.32 0.66 2 1 C1.38461538 6.53846154 1.38461538 6.53846154 -0.5625 8.875 C-1.036875 9.24625 -1.51125 9.6175 -2 10 C-2.1953125 3.9453125 -2.1953125 3.9453125 -2 2 C-1.34 1.34 -0.68 0.68 0 0 Z " fill="#202020" transform="translate(309,366)"/>
<path d="M0 0 C2.64 0.66 5.28 1.32 8 2 C5.25 5.875 5.25 5.875 3 7 C2.34 6.67 1.68 6.34 1 6 C0.375 2.9375 0.375 2.9375 0 0 Z " fill="#353434" transform="translate(638,268)"/>
<path d="M0 0 C-1.32 0.33 -2.64 0.66 -4 1 C-4 1.99 -4 2.98 -4 4 C-6.64 3.67 -9.28 3.34 -12 3 C-11 1 -11 1 -9.375 0.375 C-6.2339425 -0.12095645 -3.17398169 -0.06103811 0 0 Z " fill="#474747" transform="translate(407,260)"/>
<path d="M0 0 C2.82631003 0.29750632 4.56696127 0.65655549 6.8125 2.4375 C8 4 8 4 8 6 C7.01 5.67 6.02 5.34 5 5 C5 4.34 5 3.68 5 3 C4.01 3.33 3.02 3.66 2 4 C1.01 3.01 0.02 2.02 -1 1 C-0.67 0.67 -0.34 0.34 0 0 Z " fill="#393939" transform="translate(457,570)"/>
<path d="M0 0 C0.66 0 1.32 0 2 0 C3.60831513 4.8249454 1.9480286 8.45459994 0 13 C-0.33 13 -0.66 13 -1 13 C-0.67 8.71 -0.34 4.42 0 0 Z " fill="#1B1B1B" transform="translate(609,476)"/>
<path d="M0 0 C5 6.36363636 5 6.36363636 5 11 C3.046875 10.2890625 3.046875 10.2890625 1 9 C0.390625 6.8359375 0.390625 6.8359375 0.25 4.375 C0.19328125 3.55773437 0.1365625 2.74046875 0.078125 1.8984375 C0.05234375 1.27195312 0.0265625 0.64546875 0 0 Z " fill="#4F4F4F" transform="translate(704,323)"/>
<path d="M0 0 C0.66 0.33 1.32 0.66 2 1 C2.77811718 4.81984796 3.24386556 7.26840331 2 11 C1.34 11 0.68 11 0 11 C-0.84098656 6.98195309 -1.05404945 3.98196457 0 0 Z " fill="#1D1D1D" transform="translate(358,639)"/>
<path d="M0 0 C-2.82931852 0.80928705 -5.31084077 1.11148599 -8.25 1.0625 C-10.10625 1.0315625 -10.10625 1.0315625 -12 1 C-12 0.34 -12 -0.32 -12 -1 C-7.85350884 -4.28263884 -4.28080229 -1.93259521 0 0 Z " fill="#1C1C1B" transform="translate(507,640)"/>
<path d="M0 0 C1.32 0.33 2.64 0.66 4 1 C5.21346851 4.64040554 5.21346851 6.35959446 4 10 C3.34 10 2.68 10 2 10 C1.34 6.7 0.68 3.4 0 0 Z " fill="#3B3B3B" transform="translate(427,530)"/>
<path d="M0 0 C0.33 0.66 0.66 1.32 1 2 C3.52733235 2.65555119 3.52733235 2.65555119 6 3 C6 4.65 6 6.3 6 8 C5.01 8 4.02 8 3 8 C2.71125 7.401875 2.4225 6.80375 2.125 6.1875 C0.95257974 3.80672208 0.95257974 3.80672208 -1 1 C-0.67 0.67 -0.34 0.34 0 0 Z " fill="#484848" transform="translate(686,299)"/>
<path d="M0 0 C1.32 0.33 2.64 0.66 4 1 C4 1.99 4 2.98 4 4 C0.7 4.66 -2.6 5.32 -6 6 C-5.195625 5.38125 -4.39125 4.7625 -3.5625 4.125 C-0.96125481 2.25835959 -0.96125481 2.25835959 0 0 Z " fill="#343333" transform="translate(548,578)"/>
<path d="M0 0 C0.144375 0.61875 0.28875 1.2375 0.4375 1.875 C0.93152225 4.03258322 0.93152225 4.03258322 2 6 C-0.375 6.625 -0.375 6.625 -3 7 C-3.66 6.34 -4.32 5.68 -5 5 C-3.35 3.35 -1.7 1.7 0 0 Z " fill="#313131" transform="translate(581,555)"/>
<path d="M0 0 C1.485 0.99 1.485 0.99 3 2 C2.88637738 3.4800841 2.75877092 4.95910074 2.625 6.4375 C2.52058594 7.67306641 2.52058594 7.67306641 2.4140625 8.93359375 C2.27742188 9.61550781 2.14078125 10.29742187 2 11 C1.01 11.495 1.01 11.495 0 12 C0 8.04 0 4.08 0 0 Z " fill="#1E1E1E" transform="translate(307,478)"/>
<path d="M0 0 C3.875 2.625 3.875 2.625 5 6 C4.0625 8.1875 4.0625 8.1875 3 10 C0 3.375 0 3.375 0 0 Z " fill="#3A3B3A" transform="translate(551,397)"/>
<path d="M0 0 C0.66 0.33 1.32 0.66 2 1 C1.67 1.66 1.34 2.32 1 3 C0.34 3 -0.32 3 -1 3 C-1.33 3.99 -1.66 4.98 -2 6 C-3.875 7.75 -3.875 7.75 -6 9 C-6.99 8.67 -7.98 8.34 -9 8 C-8.43410156 7.50628906 -7.86820312 7.01257813 -7.28515625 6.50390625 C-6.55167969 5.86324219 -5.81820313 5.22257812 -5.0625 4.5625 C-4.33160156 3.92441406 -3.60070312 3.28632813 -2.84765625 2.62890625 C-1.87860647 1.77458541 -0.91348825 0.91348825 0 0 Z " fill="#1B1B1B" transform="translate(463,327)"/>
<path d="M0 0 C1.98 0.66 3.96 1.32 6 2 C6 1.34 6 0.68 6 0 C6.66 0 7.32 0 8 0 C8 0.66 8 1.32 8 2 C9.32 2.66 10.64 3.32 12 4 C10.3745692 3.85904936 8.74965949 3.71207913 7.125 3.5625 C6.22007812 3.48128906 5.31515625 3.40007812 4.3828125 3.31640625 C2 3 2 3 0 2 C0 1.34 0 0.68 0 0 Z " fill="#1E1E1D" transform="translate(539,317)"/>
<path d="M0 0 C2.875 0.3125 2.875 0.3125 6 1 C6.66 1.99 7.32 2.98 8 4 C7.67 4.66 7.34 5.32 7 6 C5.68 5.67 4.36 5.34 3 5 C3.33 4.34 3.66 3.68 4 3 C2.68 3 1.36 3 0 3 C0 2.01 0 1.02 0 0 Z " fill="#353434" transform="translate(678,296)"/>
<path d="M0 0 C6.15234375 0.5859375 6.15234375 0.5859375 8 1 C8.33 1.66 8.66 2.32 9 3 C8.34 3 7.68 3 7 3 C7 3.99 7 4.98 7 6 C3.31197956 4.77065985 2.27643027 3.06140622 0 0 Z " fill="#403F3F" transform="translate(664,281)"/>
<path d="M0 0 C0.8353125 0.2165625 0.8353125 0.2165625 1.6875 0.4375 C4.11384195 1.02769128 6.54906345 1.523429 9 2 C9 2.33 9 2.66 9 3 C4.05 3 -0.9 3 -6 3 C-4.68 2.34 -3.36 1.68 -2 1 C-1.34 1.33 -0.68 1.66 0 2 C0 1.34 0 0.68 0 0 Z " fill="#232423" transform="translate(599,253)"/>
<path d="M0 0 C2.0625 0.4375 2.0625 0.4375 4 1 C2.625 2.5 2.625 2.5 1 4 C0.34 4 -0.32 4 -1 4 C-1 4.66 -1 5.32 -1 6 C-2.65 6.33 -4.3 6.66 -6 7 C-5.67 6.34 -5.34 5.68 -5 5 C-4.01 5 -3.02 5 -2 5 C-1.855625 4.360625 -1.71125 3.72125 -1.5625 3.0625 C-1 1 -1 1 0 0 Z " fill="#1D1C1D" transform="translate(430,648)"/>
<path d="M0 0 C0.99 0 1.98 0 3 0 C3.33 0.99 3.66 1.98 4 3 C3.01 3 2.02 3 1 3 C1 3.66 1 4.32 1 5 C1.66 5.33 2.32 5.66 3 6 C2.01 7.485 2.01 7.485 1 9 C0.67 8.01 0.34 7.02 0 6 C-0.66 6 -1.32 6 -2 6 C-2 5.34 -2 4.68 -2 4 C-1.34 4 -0.68 4 0 4 C0 2.68 0 1.36 0 0 Z " fill="#323232" transform="translate(555,417)"/>
<path d="M0 0 C0.66 0 1.32 0 2 0 C2.66 2.97 3.32 5.94 4 9 C3.01 9.495 3.01 9.495 2 10 C1.46987262 8.71211992 0.9511671 7.41953322 0.4375 6.125 C0.14746094 5.40570313 -0.14257812 4.68640625 -0.44140625 3.9453125 C-1 2 -1 2 0 0 Z " fill="#3D3D3D" transform="translate(707,334)"/>
<path d="M0 0 C1.8871875 0.061875 1.8871875 0.061875 3.8125 0.125 C1.39119669 2.54630331 0.01138623 2.65340504 -3.3125 3.25 C-4.67761719 3.50136719 -4.67761719 3.50136719 -6.0703125 3.7578125 C-6.76898438 3.87898438 -7.46765625 4.00015625 -8.1875 4.125 C-6.31943932 0.38887864 -3.84663472 -0.12611917 0 0 Z " fill="#1B1B1B" transform="translate(483.1875,318.875)"/>
<path d="M0 0 C2 0 2 0 4.1875 1.6875 C6 4 6 4 5.75 6.75 C5.5025 7.4925 5.255 8.235 5 9 C4.34 8.67 3.68 8.34 3 8 C3 7.34 3 6.68 3 6 C2.34 5.34 1.68 4.68 1 4 C0.375 1.875 0.375 1.875 0 0 Z M1 8 C3 9 3 9 3 9 Z " fill="#1E1E1E" transform="translate(757,19)"/>
<path d="M0 0 C0.99 0 1.98 0 3 0 C4.04115841 1.30144802 5.03886134 2.63838689 6 4 C6.99 4.66 7.98 5.32 9 6 C9.33 6.99 9.66 7.98 10 9 C9.01 8.67 8.02 8.34 7 8 C7 7.34 7 6.68 7 6 C5.68 5.67 4.36 5.34 3 5 C2.87625 4.360625 2.7525 3.72125 2.625 3.0625 C2.315625 2.0415625 2.315625 2.0415625 2 1 C1.34 0.67 0.68 0.34 0 0 Z " fill="#393938" transform="translate(445,560)"/>
<path d="M0 0 C1.89213369 2.38573379 3.02391783 4.07175348 4 7 C3.34 7 2.68 7 2 7 C1.67 7.99 1.34 8.98 1 10 C0.01 7.36 -0.98 4.72 -2 2 C-1.34 1.34 -0.68 0.68 0 0 Z " fill="#383838" transform="translate(419,500)"/>
<path d="M0 0 C1.65 0 3.3 0 5 0 C4.67 1.32 4.34 2.64 4 4 C3.34 4 2.68 4 2 4 C1.67 5.32 1.34 6.64 1 8 C0.67 5.36 0.34 2.72 0 0 Z " fill="#1C1D1D" transform="translate(424,502)"/>
<path d="M0 0 C-1.51934706 3.03869411 -3.98004772 3.64410306 -7 5 C-7.66 5 -8.32 5 -9 5 C-9 3 -9 3 -7.875 1.375 C-5.24112056 -0.55651159 -3.18083044 -0.21205536 0 0 Z " fill="#1C1C1B" transform="translate(475,323)"/>
<path d="M0 0 C0.33 1.32 0.66 2.64 1 4 C-0.96382007 5.50559539 -2.78263366 6.89131683 -5 8 C-4.45773019 4.20411134 -2.79872437 2.52788007 0 0 Z " fill="#333333" transform="translate(340,294)"/>
<path d="M0 0 C4.54805635 -0.17835515 7.8794254 0.00214565 12 2 C11.67 2.66 11.34 3.32 11 4 C10.01 4 9.02 4 8 4 C8 3.34 8 2.68 8 2 C5.36 1.67 2.72 1.34 0 1 C0 0.67 0 0.34 0 0 Z " fill="#545354" transform="translate(619,260)"/>
<path d="M0 0 C0.66 0 1.32 0 2 0 C2 0.66 2 1.32 2 2 C1.34 2 0.68 2 0 2 C0 2.66 0 3.32 0 4 C0.66 4.33 1.32 4.66 2 5 C1.34 5.66 0.68 6.32 0 7 C-0.66 6.34 -1.32 5.68 -2 5 C-1.46428571 1.46428571 -1.46428571 1.46428571 0 0 Z " fill="#212122" transform="translate(360,650)"/>
<path d="M0 0 C6.15234375 0.5859375 6.15234375 0.5859375 8 1 C8.33 1.66 8.66 2.32 9 3 C5.7 3 2.4 3 -1 3 C-0.67 2.01 -0.34 1.02 0 0 Z " fill="#1B1B1B" transform="translate(512,638)"/>
<path d="M0 0 C0.33 0 0.66 0 1 0 C0.67 2.97 0.34 5.94 0 9 C-0.99 9.33 -1.98 9.66 -3 10 C-2.34 8.35 -1.68 6.7 -1 5 C-1.66 4.67 -2.32 4.34 -3 4 C-2.02727325 2.64664105 -1.0260734 1.31337396 0 0 Z " fill="#393939" transform="translate(418,476)"/>
<path d="M0 0 C0.99 0.99 1.98 1.98 3 3 C1.02 5.97 1.02 5.97 -1 9 C-2.25541557 5.23375329 -1.37061958 3.62811066 0 0 Z " fill="#202020" transform="translate(313,337)"/>
<path d="M0 0 C0.99 0 1.98 0 3 0 C3.93423645 3.01031744 4.04449911 3.86650268 3 7 C2.01 6.67 1.02 6.34 0 6 C0 4.02 0 2.04 0 0 Z " fill="#353535" transform="translate(714,411)"/>
<path d="M0 0 C0.66 0 1.32 0 2 0 C2.12375 0.804375 2.2475 1.60875 2.375 2.4375 C2.684375 3.7059375 2.684375 3.7059375 3 5 C3.66 5.33 4.32 5.66 5 6 C4.01 6 3.02 6 2 6 C2 5.34 2 4.68 2 4 C0.35 3.67 -1.3 3.34 -3 3 C-2.67 2.34 -2.34 1.68 -2 1 C-1.34 1.33 -0.68 1.66 0 2 C0 1.34 0 0.68 0 0 Z " fill="#1E1E1E" transform="translate(554,320)"/>
<path d="M0 0 C1.32 0 2.64 0 4 0 C4 1.65 4 3.3 4 5 C2.02 4.34 0.04 3.68 -2 3 C-1.34 2.01 -0.68 1.02 0 0 Z " fill="#252525" transform="translate(947,125)"/>
<path d="M0 0 C0.33 0 0.66 0 1 0 C0.88637738 1.4800841 0.75877092 2.95910074 0.625 4.4375 C0.52058594 5.67306641 0.52058594 5.67306641 0.4140625 6.93359375 C0.27742187 7.61550781 0.14078125 8.29742187 0 9 C-0.99 9.495 -0.99 9.495 -2 10 C-2 7.69 -2 5.38 -2 3 C-1.34 3 -0.68 3 0 3 C0 2.01 0 1.02 0 0 Z " fill="#333334" transform="translate(554,503)"/>
<path d="M0 0 C3 2 3 2 3.8125 4 C3.874375 4.66 3.93625 5.32 4 6 C3.34 6.66 2.68 7.32 2 8 C0.23537317 4.91190305 0 3.76687864 0 0 Z " fill="#1D1D1D" transform="translate(598,371)"/>
</svg>
